<?xml version="1.0" encoding="UTF-8" ?>
<svg version="1.1" width="128" height="128" xmlns="http://www.w3.org/2000/svg" shape-rendering="crispEdges">
<rect x="0" y="0" width="128" height="4" fill="#0F2E32" />
<rect x="0" y="4" width="31" height="49" fill="#0F2E32" />
<rect x="31" y="4" width="5" height="6" fill="#FFFFFF" />
<rect x="36" y="4" width="56" height="2" fill="#0F2E32" />
<rect x="92" y="4" width="5" height="6" fill="#FFFFFF" />
<rect x="97" y="4" width="31" height="49" fill="#0F2E32" />
<rect x="36" y="6" width="1" height="19" fill="#FFFFFF" />
<rect x="37" y="6" width="54" height="3" fill="#0F2E32" />
<rect x="91" y="6" width="1" height="19" fill="#FFFFFF" />
<rect x="37" y="9" width="1" height="19" fill="#FFFFFF" />
<rect x="38" y="9" width="52" height="3" fill="#0F2E32" />
<rect x="90" y="9" width="1" height="19" fill="#FFFFFF" />
<rect x="31" y="10" width="1" height="42" fill="#0F2E32" />
<rect x="32" y="10" width="4" height="3" fill="#FFFFFF" />
<rect x="92" y="10" width="4" height="3" fill="#FFFFFF" />
<rect x="96" y="10" width="1" height="42" fill="#0F2E32" />
<rect x="38" y="12" width="21" height="1" fill="#0F2E32" />
<rect x="59" y="12" width="10" height="6" fill="#FFFFFF" />
<rect x="69" y="12" width="21" height="1" fill="#0F2E32" />
<rect x="32" y="13" width="1" height="37" fill="#0F2E32" />
<rect x="33" y="13" width="3" height="4" fill="#FFFFFF" />
<rect x="38" y="13" width="1" height="17" fill="#FFFFFF" />
<rect x="39" y="13" width="17" height="1" fill="#0F2E32" />
<rect x="56" y="13" width="3" height="6" fill="#FFFFFF" />
<rect x="69" y="13" width="3" height="6" fill="#FFFFFF" />
<rect x="72" y="13" width="17" height="1" fill="#0F2E32" />
<rect x="89" y="13" width="1" height="17" fill="#FFFFFF" />
<rect x="92" y="13" width="3" height="4" fill="#FFFFFF" />
<rect x="95" y="13" width="1" height="37" fill="#0F2E32" />
<rect x="39" y="14" width="12" height="1" fill="#0F2E32" />
<rect x="51" y="14" width="5" height="5" fill="#FFFFFF" />
<rect x="72" y="14" width="5" height="5" fill="#FFFFFF" />
<rect x="77" y="14" width="12" height="1" fill="#0F2E32" />
<rect x="39" y="15" width="6" height="1" fill="#0F2E32" />
<rect x="45" y="15" width="6" height="5" fill="#FFFFFF" />
<rect x="77" y="15" width="6" height="5" fill="#FFFFFF" />
<rect x="83" y="15" width="6" height="1" fill="#0F2E32" />
<rect x="39" y="16" width="6" height="5" fill="#FFFFFF" />
<rect x="83" y="16" width="6" height="5" fill="#FFFFFF" />
<rect x="33" y="17" width="1" height="33" fill="#0F2E32" />
<rect x="34" y="17" width="2" height="3" fill="#FFFFFF" />
<rect x="92" y="17" width="2" height="3" fill="#FFFFFF" />
<rect x="94" y="17" width="1" height="33" fill="#0F2E32" />
<rect x="59" y="18" width="2" height="1" fill="#FFFFFF" />
<rect x="61" y="18" width="6" height="5" fill="#0F2E32" />
<rect x="67" y="18" width="2" height="1" fill="#FFFFFF" />
<rect x="51" y="19" width="4" height="1" fill="#FFFFFF" />
<rect x="55" y="19" width="6" height="4" fill="#0F2E32" />
<rect x="67" y="19" width="6" height="4" fill="#0F2E32" />
<rect x="73" y="19" width="4" height="1" fill="#FFFFFF" />
<rect x="34" y="20" width="1" height="29" fill="#0F2E32" />
<rect x="35" y="20" width="1" height="2" fill="#FFFFFF" />
<rect x="45" y="20" width="4" height="1" fill="#FFFFFF" />
<rect x="49" y="20" width="6" height="3" fill="#0F2E32" />
<rect x="73" y="20" width="6" height="3" fill="#0F2E32" />
<rect x="79" y="20" width="4" height="1" fill="#FFFFFF" />
<rect x="92" y="20" width="1" height="2" fill="#FFFFFF" />
<rect x="93" y="20" width="1" height="29" fill="#0F2E32" />
<rect x="39" y="21" width="5" height="1" fill="#FFFFFF" />
<rect x="44" y="21" width="5" height="2" fill="#0F2E32" />
<rect x="79" y="21" width="5" height="2" fill="#0F2E32" />
<rect x="84" y="21" width="5" height="1" fill="#FFFFFF" />
<rect x="35" y="22" width="1" height="26" fill="#0F2E32" />
<rect x="39" y="22" width="3" height="10" fill="#FFFFFF" />
<rect x="42" y="22" width="2" height="2" fill="#0F2E32" />
<rect x="84" y="22" width="2" height="2" fill="#0F2E32" />
<rect x="86" y="22" width="3" height="10" fill="#FFFFFF" />
<rect x="92" y="22" width="1" height="26" fill="#0F2E32" />
<rect x="44" y="23" width="2" height="1" fill="#0F2E32" />
<rect x="46" y="23" width="36" height="5" fill="#FFFFFF" />
<rect x="82" y="23" width="2" height="1" fill="#0F2E32" />
<rect x="42" y="24" width="4" height="10" fill="#FFFFFF" />
<rect x="82" y="24" width="4" height="10" fill="#FFFFFF" />
<rect x="36" y="25" width="1" height="22" fill="#0F2E32" />
<rect x="91" y="25" width="1" height="22" fill="#0F2E32" />
<rect x="37" y="28" width="1" height="18" fill="#0F2E32" />
<rect x="46" y="28" width="4" height="1" fill="#FFFFFF" />
<rect x="50" y="28" width="28" height="4" fill="#0F2E32" />
<rect x="78" y="28" width="4" height="1" fill="#FFFFFF" />
<rect x="90" y="28" width="1" height="18" fill="#0F2E32" />
<rect x="46" y="29" width="1" height="8" fill="#FFFFFF" />
<rect x="47" y="29" width="3" height="1" fill="#0F2E32" />
<rect x="78" y="29" width="3" height="1" fill="#0F2E32" />
<rect x="81" y="29" width="1" height="8" fill="#FFFFFF" />
<rect x="38" y="30" width="1" height="15" fill="#0F2E32" />
<rect x="47" y="30" width="1" height="7" fill="#FFFFFF" />
<rect x="48" y="30" width="2" height="1" fill="#0F2E32" />
<rect x="78" y="30" width="2" height="1" fill="#0F2E32" />
<rect x="80" y="30" width="1" height="7" fill="#FFFFFF" />
<rect x="89" y="30" width="1" height="15" fill="#0F2E32" />
<rect x="48" y="31" width="2" height="6" fill="#FFFFFF" />
<rect x="78" y="31" width="2" height="6" fill="#FFFFFF" />
<rect x="39" y="32" width="1" height="13" fill="#0F2E32" />
<rect x="40" y="32" width="2" height="1" fill="#FFFFFF" />
<rect x="50" y="32" width="3" height="6" fill="#FFFFFF" />
<rect x="53" y="32" width="22" height="1" fill="#0F2E32" />
<rect x="75" y="32" width="3" height="6" fill="#FFFFFF" />
<rect x="86" y="32" width="2" height="1" fill="#FFFFFF" />
<rect x="88" y="32" width="1" height="13" fill="#0F2E32" />
<rect x="40" y="33" width="1" height="11" fill="#0F2E32" />
<rect x="41" y="33" width="1" height="1" fill="#FFFFFF" />
<rect x="53" y="33" width="3" height="12" fill="#FFFFFF" />
<rect x="56" y="33" width="16" height="1" fill="#0F2E32" />
<rect x="72" y="33" width="3" height="12" fill="#FFFFFF" />
<rect x="86" y="33" width="1" height="1" fill="#FFFFFF" />
<rect x="87" y="33" width="1" height="11" fill="#0F2E32" />
<rect x="41" y="34" width="2" height="9" fill="#0F2E32" />
<rect x="43" y="34" width="3" height="1" fill="#FFFFFF" />
<rect x="56" y="34" width="3" height="10" fill="#FFFFFF" />
<rect x="59" y="34" width="10" height="1" fill="#0F2E32" />
<rect x="69" y="34" width="3" height="10" fill="#FFFFFF" />
<rect x="82" y="34" width="3" height="1" fill="#FFFFFF" />
<rect x="85" y="34" width="2" height="9" fill="#0F2E32" />
<rect x="43" y="35" width="1" height="7" fill="#0F2E32" />
<rect x="44" y="35" width="2" height="1" fill="#FFFFFF" />
<rect x="59" y="35" width="2" height="8" fill="#FFFFFF" />
<rect x="61" y="35" width="6" height="1" fill="#0F2E32" />
<rect x="67" y="35" width="2" height="8" fill="#FFFFFF" />
<rect x="82" y="35" width="2" height="1" fill="#FFFFFF" />
<rect x="84" y="35" width="1" height="7" fill="#0F2E32" />
<rect x="44" y="36" width="2" height="6" fill="#0F2E32" />
<rect x="61" y="36" width="2" height="7" fill="#FFFFFF" />
<rect x="63" y="36" width="2" height="1" fill="#0F2E32" />
<rect x="65" y="36" width="2" height="7" fill="#FFFFFF" />
<rect x="82" y="36" width="2" height="6" fill="#0F2E32" />
<rect x="46" y="37" width="3" height="3" fill="#0F2E32" />
<rect x="49" y="37" width="1" height="1" fill="#FFFFFF" />
<rect x="63" y="37" width="2" height="6" fill="#FFFFFF" />
<rect x="78" y="37" width="1" height="1" fill="#FFFFFF" />
<rect x="79" y="37" width="3" height="3" fill="#0F2E32" />
<rect x="49" y="38" width="3" height="2" fill="#0F2E32" />
<rect x="52" y="38" width="1" height="7" fill="#FFFFFF" />
<rect x="75" y="38" width="1" height="7" fill="#FFFFFF" />
<rect x="76" y="38" width="3" height="2" fill="#0F2E32" />
<rect x="46" y="40" width="2" height="1" fill="#0F2E32" />
<rect x="48" y="40" width="4" height="6" fill="#FFFFFF" />
<rect x="76" y="40" width="4" height="6" fill="#FFFFFF" />
<rect x="80" y="40" width="2" height="1" fill="#0F2E32" />
<rect x="46" y="41" width="2" height="6" fill="#FFFFFF" />
<rect x="80" y="41" width="2" height="6" fill="#FFFFFF" />
<rect x="43" y="42" width="3" height="6" fill="#FFFFFF" />
<rect x="82" y="42" width="3" height="6" fill="#FFFFFF" />
<rect x="41" y="43" width="2" height="7" fill="#FFFFFF" />
<rect x="59" y="43" width="1" height="1" fill="#FFFFFF" />
<rect x="60" y="43" width="8" height="8" fill="#0F2E32" />
<rect x="68" y="43" width="1" height="1" fill="#FFFFFF" />
<rect x="85" y="43" width="2" height="7" fill="#FFFFFF" />
<rect x="40" y="44" width="1" height="40" fill="#FFFFFF" />
<rect x="56" y="44" width="4" height="7" fill="#0F2E32" />
<rect x="68" y="44" width="4" height="7" fill="#0F2E32" />
<rect x="87" y="44" width="1" height="15" fill="#FFFFFF" />
<rect x="38" y="45" width="2" height="38" fill="#FFFFFF" />
<rect x="52" y="45" width="4" height="6" fill="#0F2E32" />
<rect x="72" y="45" width="4" height="6" fill="#0F2E32" />
<rect x="88" y="45" width="2" height="15" fill="#FFFFFF" />
<rect x="37" y="46" width="1" height="36" fill="#FFFFFF" />
<rect x="48" y="46" width="2" height="1" fill="#FFFFFF" />
<rect x="50" y="46" width="2" height="5" fill="#0F2E32" />
<rect x="76" y="46" width="2" height="5" fill="#0F2E32" />
<rect x="78" y="46" width="2" height="1" fill="#FFFFFF" />
<rect x="90" y="46" width="1" height="14" fill="#FFFFFF" />
<rect x="36" y="47" width="1" height="34" fill="#FFFFFF" />
<rect x="46" y="47" width="1" height="1" fill="#FFFFFF" />
<rect x="47" y="47" width="3" height="4" fill="#0F2E32" />
<rect x="78" y="47" width="3" height="4" fill="#0F2E32" />
<rect x="81" y="47" width="1" height="1" fill="#FFFFFF" />
<rect x="91" y="47" width="1" height="13" fill="#FFFFFF" />
<rect x="35" y="48" width="1" height="33" fill="#FFFFFF" />
<rect x="43" y="48" width="2" height="1" fill="#FFFFFF" />
<rect x="45" y="48" width="2" height="3" fill="#0F2E32" />
<rect x="81" y="48" width="2" height="3" fill="#0F2E32" />
<rect x="83" y="48" width="2" height="1" fill="#FFFFFF" />
<rect x="92" y="48" width="1" height="13" fill="#FFFFFF" />
<rect x="34" y="49" width="1" height="31" fill="#FFFFFF" />
<rect x="43" y="49" width="1" height="1" fill="#FFFFFF" />
<rect x="44" y="49" width="1" height="2" fill="#0F2E32" />
<rect x="83" y="49" width="1" height="2" fill="#0F2E32" />
<rect x="84" y="49" width="1" height="1" fill="#FFFFFF" />
<rect x="93" y="49" width="1" height="31" fill="#FFFFFF" />
<rect x="32" y="50" width="2" height="27" fill="#FFFFFF" />
<rect x="41" y="50" width="1" height="35" fill="#FFFFFF" />
<rect x="42" y="50" width="2" height="1" fill="#0F2E32" />
<rect x="84" y="50" width="2" height="1" fill="#0F2E32" />
<rect x="86" y="50" width="1" height="9" fill="#FFFFFF" />
<rect x="94" y="50" width="2" height="27" fill="#FFFFFF" />
<rect x="42" y="51" width="44" height="4" fill="#FFFFFF" />
<rect x="31" y="52" width="1" height="23" fill="#FFFFFF" />
<rect x="96" y="52" width="1" height="23" fill="#FFFFFF" />
<rect x="0" y="53" width="30" height="1" fill="#0F2E32" />
<rect x="30" y="53" width="1" height="20" fill="#FFFFFF" />
<rect x="97" y="53" width="1" height="20" fill="#FFFFFF" />
<rect x="98" y="53" width="30" height="1" fill="#0F2E32" />
<rect x="0" y="54" width="29" height="74" fill="#0F2E32" />
<rect x="29" y="54" width="1" height="16" fill="#FFFFFF" />
<rect x="98" y="54" width="1" height="16" fill="#FFFFFF" />
<rect x="99" y="54" width="29" height="74" fill="#0F2E32" />
<rect x="42" y="55" width="7" height="1" fill="#FFFFFF" />
<rect x="49" y="55" width="5" height="15" fill="#0F2E32" />
<rect x="54" y="55" width="32" height="1" fill="#FFFFFF" />
<rect x="42" y="56" width="6" height="1" fill="#FFFFFF" />
<rect x="48" y="56" width="1" height="13" fill="#0F2E32" />
<rect x="54" y="56" width="1" height="14" fill="#0F2E32" />
<rect x="55" y="56" width="31" height="1" fill="#FFFFFF" />
<rect x="42" y="57" width="5" height="1" fill="#FFFFFF" />
<rect x="47" y="57" width="1" height="11" fill="#0F2E32" />
<rect x="55" y="57" width="1" height="12" fill="#0F2E32" />
<rect x="56" y="57" width="30" height="1" fill="#FFFFFF" />
<rect x="42" y="58" width="4" height="1" fill="#FFFFFF" />
<rect x="46" y="58" width="1" height="9" fill="#0F2E32" />
<rect x="56" y="58" width="2" height="9" fill="#0F2E32" />
<rect x="58" y="58" width="28" height="1" fill="#FFFFFF" />
<rect x="42" y="59" width="3" height="1" fill="#FFFFFF" />
<rect x="45" y="59" width="1" height="7" fill="#0F2E32" />
<rect x="58" y="59" width="30" height="5" fill="#0F2E32" />
<rect x="42" y="60" width="2" height="17" fill="#FFFFFF" />
<rect x="44" y="60" width="1" height="5" fill="#0F2E32" />
<rect x="88" y="60" width="4" height="3" fill="#0F2E32" />
<rect x="92" y="61" width="1" height="1" fill="#0F2E32" />
<rect x="92" y="62" width="1" height="19" fill="#FFFFFF" />
<rect x="88" y="63" width="2" height="1" fill="#0F2E32" />
<rect x="90" y="63" width="2" height="18" fill="#FFFFFF" />
<rect x="58" y="64" width="1" height="2" fill="#0F2E32" />
<rect x="59" y="64" width="4" height="13" fill="#FFFFFF" />
<rect x="63" y="64" width="24" height="1" fill="#0F2E32" />
<rect x="87" y="64" width="3" height="19" fill="#FFFFFF" />
<rect x="44" y="65" width="1" height="12" fill="#FFFFFF" />
<rect x="63" y="65" width="2" height="12" fill="#FFFFFF" />
<rect x="65" y="65" width="3" height="1" fill="#0F2E32" />
<rect x="68" y="65" width="4" height="12" fill="#FFFFFF" />
<rect x="72" y="65" width="4" height="1" fill="#0F2E32" />
<rect x="76" y="65" width="4" height="12" fill="#FFFFFF" />
<rect x="80" y="65" width="5" height="1" fill="#0F2E32" />
<rect x="85" y="65" width="2" height="12" fill="#FFFFFF" />
<rect x="45" y="66" width="1" height="11" fill="#FFFFFF" />
<rect x="58" y="66" width="1" height="11" fill="#FFFFFF" />
<rect x="65" y="66" width="1" height="11" fill="#FFFFFF" />
<rect x="66" y="66" width="2" height="1" fill="#0F2E32" />
<rect x="72" y="66" width="1" height="11" fill="#FFFFFF" />
<rect x="73" y="66" width="3" height="1" fill="#0F2E32" />
<rect x="80" y="66" width="5" height="11" fill="#FFFFFF" />
<rect x="46" y="67" width="1" height="10" fill="#FFFFFF" />
<rect x="56" y="67" width="1" height="1" fill="#0F2E32" />
<rect x="57" y="67" width="1" height="10" fill="#FFFFFF" />
<rect x="66" y="67" width="1" height="10" fill="#FFFFFF" />
<rect x="67" y="67" width="1" height="1" fill="#0F2E32" />
<rect x="73" y="67" width="1" height="10" fill="#FFFFFF" />
<rect x="74" y="67" width="2" height="1" fill="#0F2E32" />
<rect x="47" y="68" width="1" height="9" fill="#FFFFFF" />
<rect x="56" y="68" width="1" height="9" fill="#FFFFFF" />
<rect x="67" y="68" width="1" height="9" fill="#FFFFFF" />
<rect x="74" y="68" width="2" height="9" fill="#FFFFFF" />
<rect x="48" y="69" width="1" height="8" fill="#FFFFFF" />
<rect x="55" y="69" width="1" height="8" fill="#FFFFFF" />
<rect x="29" y="70" width="1" height="58" fill="#0F2E32" />
<rect x="49" y="70" width="6" height="7" fill="#FFFFFF" />
<rect x="98" y="70" width="1" height="58" fill="#0F2E32" />
<rect x="30" y="73" width="1" height="55" fill="#0F2E32" />
<rect x="97" y="73" width="1" height="55" fill="#0F2E32" />
<rect x="31" y="75" width="1" height="43" fill="#0F2E32" />
<rect x="96" y="75" width="1" height="43" fill="#0F2E32" />
<rect x="32" y="77" width="1" height="38" fill="#0F2E32" />
<rect x="33" y="77" width="1" height="2" fill="#FFFFFF" />
<rect x="42" y="77" width="44" height="1" fill="#0F2E32" />
<rect x="86" y="77" width="1" height="8" fill="#FFFFFF" />
<rect x="94" y="77" width="1" height="2" fill="#FFFFFF" />
<rect x="95" y="77" width="1" height="38" fill="#0F2E32" />
<rect x="42" y="78" width="2" height="7" fill="#FFFFFF" />
<rect x="44" y="78" width="40" height="1" fill="#0F2E32" />
<rect x="84" y="78" width="2" height="7" fill="#FFFFFF" />
<rect x="33" y="79" width="1" height="32" fill="#0F2E32" />
<rect x="44" y="79" width="1" height="7" fill="#FFFFFF" />
<rect x="45" y="79" width="38" height="1" fill="#0F2E32" />
<rect x="83" y="79" width="1" height="7" fill="#FFFFFF" />
<rect x="94" y="79" width="1" height="32" fill="#0F2E32" />
<rect x="34" y="80" width="1" height="28" fill="#0F2E32" />
<rect x="45" y="80" width="2" height="6" fill="#FFFFFF" />
<rect x="47" y="80" width="34" height="1" fill="#0F2E32" />
<rect x="81" y="80" width="2" height="6" fill="#FFFFFF" />
<rect x="93" y="80" width="1" height="28" fill="#0F2E32" />
<rect x="35" y="81" width="2" height="22" fill="#0F2E32" />
<rect x="47" y="81" width="3" height="6" fill="#FFFFFF" />
<rect x="50" y="81" width="28" height="1" fill="#0F2E32" />
<rect x="78" y="81" width="3" height="6" fill="#FFFFFF" />
<rect x="90" y="81" width="1" height="1" fill="#FFFFFF" />
<rect x="91" y="81" width="2" height="22" fill="#0F2E32" />
<rect x="37" y="82" width="1" height="18" fill="#0F2E32" />
<rect x="50" y="82" width="2" height="6" fill="#FFFFFF" />
<rect x="52" y="82" width="24" height="1" fill="#0F2E32" />
<rect x="76" y="82" width="2" height="6" fill="#FFFFFF" />
<rect x="90" y="82" width="1" height="18" fill="#0F2E32" />
<rect x="38" y="83" width="2" height="13" fill="#0F2E32" />
<rect x="52" y="83" width="4" height="12" fill="#FFFFFF" />
<rect x="56" y="83" width="16" height="1" fill="#0F2E32" />
<rect x="72" y="83" width="4" height="12" fill="#FFFFFF" />
<rect x="87" y="83" width="1" height="1" fill="#FFFFFF" />
<rect x="88" y="83" width="2" height="13" fill="#0F2E32" />
<rect x="40" y="84" width="1" height="11" fill="#0F2E32" />
<rect x="56" y="84" width="4" height="9" fill="#FFFFFF" />
<rect x="60" y="84" width="8" height="1" fill="#0F2E32" />
<rect x="68" y="84" width="4" height="9" fill="#FFFFFF" />
<rect x="87" y="84" width="1" height="11" fill="#0F2E32" />
<rect x="41" y="85" width="2" height="9" fill="#0F2E32" />
<rect x="43" y="85" width="1" height="1" fill="#FFFFFF" />
<rect x="60" y="85" width="8" height="6" fill="#FFFFFF" />
<rect x="84" y="85" width="1" height="1" fill="#FFFFFF" />
<rect x="85" y="85" width="2" height="9" fill="#0F2E32" />
<rect x="43" y="86" width="3" height="6" fill="#0F2E32" />
<rect x="46" y="86" width="1" height="1" fill="#FFFFFF" />
<rect x="81" y="86" width="1" height="1" fill="#FFFFFF" />
<rect x="82" y="86" width="3" height="6" fill="#0F2E32" />
<rect x="46" y="87" width="2" height="4" fill="#0F2E32" />
<rect x="48" y="87" width="2" height="1" fill="#FFFFFF" />
<rect x="78" y="87" width="2" height="1" fill="#FFFFFF" />
<rect x="80" y="87" width="2" height="4" fill="#0F2E32" />
<rect x="48" y="88" width="4" height="2" fill="#0F2E32" />
<rect x="76" y="88" width="4" height="2" fill="#0F2E32" />
<rect x="48" y="90" width="1" height="1" fill="#0F2E32" />
<rect x="49" y="90" width="3" height="6" fill="#FFFFFF" />
<rect x="76" y="90" width="3" height="6" fill="#FFFFFF" />
<rect x="79" y="90" width="1" height="1" fill="#0F2E32" />
<rect x="46" y="91" width="3" height="6" fill="#FFFFFF" />
<rect x="60" y="91" width="3" height="1" fill="#FFFFFF" />
<rect x="63" y="91" width="2" height="9" fill="#0F2E32" />
<rect x="65" y="91" width="3" height="1" fill="#FFFFFF" />
<rect x="79" y="91" width="3" height="6" fill="#FFFFFF" />
<rect x="43" y="92" width="1" height="1" fill="#0F2E32" />
<rect x="44" y="92" width="2" height="12" fill="#FFFFFF" />
<rect x="60" y="92" width="1" height="1" fill="#FFFFFF" />
<rect x="61" y="92" width="2" height="8" fill="#0F2E32" />
<rect x="65" y="92" width="2" height="8" fill="#0F2E32" />
<rect x="67" y="92" width="1" height="1" fill="#FFFFFF" />
<rect x="82" y="92" width="2" height="12" fill="#FFFFFF" />
<rect x="84" y="92" width="1" height="1" fill="#0F2E32" />
<rect x="43" y="93" width="1" height="11" fill="#FFFFFF" />
<rect x="56" y="93" width="3" height="1" fill="#FFFFFF" />
<rect x="59" y="93" width="2" height="7" fill="#0F2E32" />
<rect x="67" y="93" width="2" height="7" fill="#0F2E32" />
<rect x="69" y="93" width="3" height="1" fill="#FFFFFF" />
<rect x="84" y="93" width="1" height="11" fill="#FFFFFF" />
<rect x="41" y="94" width="2" height="10" fill="#FFFFFF" />
<rect x="56" y="94" width="3" height="6" fill="#0F2E32" />
<rect x="69" y="94" width="3" height="6" fill="#0F2E32" />
<rect x="85" y="94" width="2" height="10" fill="#FFFFFF" />
<rect x="40" y="95" width="1" height="17" fill="#FFFFFF" />
<rect x="52" y="95" width="1" height="1" fill="#FFFFFF" />
<rect x="53" y="95" width="3" height="5" fill="#0F2E32" />
<rect x="72" y="95" width="3" height="5" fill="#0F2E32" />
<rect x="75" y="95" width="1" height="1" fill="#FFFFFF" />
<rect x="87" y="95" width="1" height="17" fill="#FFFFFF" />
<rect x="38" y="96" width="1" height="2" fill="#0F2E32" />
<rect x="39" y="96" width="1" height="16" fill="#FFFFFF" />
<rect x="49" y="96" width="1" height="1" fill="#FFFFFF" />
<rect x="50" y="96" width="3" height="4" fill="#0F2E32" />
<rect x="75" y="96" width="3" height="4" fill="#0F2E32" />
<rect x="78" y="96" width="1" height="1" fill="#FFFFFF" />
<rect x="88" y="96" width="1" height="16" fill="#FFFFFF" />
<rect x="89" y="96" width="1" height="2" fill="#0F2E32" />
<rect x="46" y="97" width="2" height="1" fill="#FFFFFF" />
<rect x="48" y="97" width="2" height="2" fill="#0F2E32" />
<rect x="78" y="97" width="2" height="2" fill="#0F2E32" />
<rect x="80" y="97" width="2" height="1" fill="#FFFFFF" />
<rect x="38" y="98" width="1" height="17" fill="#FFFFFF" />
<rect x="46" y="98" width="1" height="7" fill="#FFFFFF" />
<rect x="47" y="98" width="1" height="1" fill="#0F2E32" />
<rect x="80" y="98" width="1" height="1" fill="#0F2E32" />
<rect x="81" y="98" width="1" height="7" fill="#FFFFFF" />
<rect x="89" y="98" width="1" height="17" fill="#FFFFFF" />
<rect x="47" y="99" width="3" height="6" fill="#FFFFFF" />
<rect x="78" y="99" width="3" height="6" fill="#FFFFFF" />
<rect x="37" y="100" width="1" height="19" fill="#FFFFFF" />
<rect x="50" y="100" width="28" height="5" fill="#FFFFFF" />
<rect x="90" y="100" width="1" height="19" fill="#FFFFFF" />
<rect x="35" y="103" width="1" height="3" fill="#0F2E32" />
<rect x="36" y="103" width="1" height="19" fill="#FFFFFF" />
<rect x="91" y="103" width="1" height="19" fill="#FFFFFF" />
<rect x="92" y="103" width="1" height="3" fill="#0F2E32" />
<rect x="41" y="104" width="1" height="8" fill="#FFFFFF" />
<rect x="42" y="104" width="4" height="2" fill="#0F2E32" />
<rect x="82" y="104" width="4" height="2" fill="#0F2E32" />
<rect x="86" y="104" width="1" height="8" fill="#FFFFFF" />
<rect x="46" y="105" width="36" height="2" fill="#0F2E32" />
<rect x="35" y="106" width="1" height="18" fill="#FFFFFF" />
<rect x="42" y="106" width="2" height="6" fill="#FFFFFF" />
<rect x="44" y="106" width="2" height="1" fill="#0F2E32" />
<rect x="82" y="106" width="2" height="1" fill="#0F2E32" />
<rect x="84" y="106" width="2" height="6" fill="#FFFFFF" />
<rect x="92" y="106" width="1" height="18" fill="#FFFFFF" />
<rect x="44" y="107" width="5" height="5" fill="#FFFFFF" />
<rect x="49" y="107" width="30" height="1" fill="#0F2E32" />
<rect x="79" y="107" width="5" height="5" fill="#FFFFFF" />
<rect x="34" y="108" width="1" height="16" fill="#FFFFFF" />
<rect x="49" y="108" width="6" height="5" fill="#FFFFFF" />
<rect x="55" y="108" width="18" height="1" fill="#0F2E32" />
<rect x="73" y="108" width="6" height="5" fill="#FFFFFF" />
<rect x="93" y="108" width="1" height="16" fill="#FFFFFF" />
<rect x="55" y="109" width="6" height="5" fill="#FFFFFF" />
<rect x="61" y="109" width="6" height="1" fill="#0F2E32" />
<rect x="67" y="109" width="6" height="5" fill="#FFFFFF" />
<rect x="61" y="110" width="6" height="6" fill="#FFFFFF" />
<rect x="33" y="111" width="1" height="13" fill="#FFFFFF" />
<rect x="94" y="111" width="1" height="13" fill="#FFFFFF" />
<rect x="39" y="112" width="6" height="16" fill="#0F2E32" />
<rect x="45" y="112" width="4" height="1" fill="#FFFFFF" />
<rect x="79" y="112" width="4" height="1" fill="#FFFFFF" />
<rect x="83" y="112" width="6" height="16" fill="#0F2E32" />
<rect x="45" y="113" width="6" height="15" fill="#0F2E32" />
<rect x="51" y="113" width="4" height="1" fill="#FFFFFF" />
<rect x="73" y="113" width="4" height="1" fill="#FFFFFF" />
<rect x="77" y="113" width="6" height="15" fill="#0F2E32" />
<rect x="51" y="114" width="5" height="14" fill="#0F2E32" />
<rect x="56" y="114" width="5" height="1" fill="#FFFFFF" />
<rect x="67" y="114" width="5" height="1" fill="#FFFFFF" />
<rect x="72" y="114" width="5" height="14" fill="#0F2E32" />
<rect x="32" y="115" width="1" height="9" fill="#FFFFFF" />
<rect x="38" y="115" width="1" height="13" fill="#0F2E32" />
<rect x="56" y="115" width="3" height="13" fill="#0F2E32" />
<rect x="59" y="115" width="2" height="1" fill="#FFFFFF" />
<rect x="67" y="115" width="2" height="1" fill="#FFFFFF" />
<rect x="69" y="115" width="3" height="13" fill="#0F2E32" />
<rect x="89" y="115" width="1" height="13" fill="#0F2E32" />
<rect x="95" y="115" width="1" height="9" fill="#FFFFFF" />
<rect x="59" y="116" width="10" height="12" fill="#0F2E32" />
<rect x="31" y="118" width="1" height="6" fill="#FFFFFF" />
<rect x="96" y="118" width="1" height="6" fill="#FFFFFF" />
<rect x="37" y="119" width="1" height="9" fill="#0F2E32" />
<rect x="90" y="119" width="1" height="9" fill="#0F2E32" />
<rect x="36" y="122" width="1" height="6" fill="#0F2E32" />
<rect x="91" y="122" width="1" height="6" fill="#0F2E32" />
<rect x="31" y="124" width="5" height="4" fill="#0F2E32" />
<rect x="92" y="124" width="5" height="4" fill="#0F2E32" />
</svg>