<?xml version="1.0" encoding="UTF-8" ?>
<svg version="1.1" width="32" height="32" xmlns="http://www.w3.org/2000/svg" shape-rendering="crispEdges">
<rect x="17" y="7" width="2" height="1" fill="#F1F0FD" />
<rect x="19" y="7" width="1" height="6" fill="#CDAA6B" />
<rect x="15" y="8" width="3" height="1" fill="#F1F0FD" />
<rect x="18" y="8" width="1" height="1" fill="#50B34B" />
<rect x="20" y="8" width="1" height="3" fill="#9F8556" />
<rect x="14" y="9" width="1" height="1" fill="#F1F0FD" />
<rect x="15" y="9" width="3" height="1" fill="#D1D1D1" />
<rect x="18" y="9" width="1" height="4" fill="#CDAA6B" />
<rect x="13" y="10" width="1" height="1" fill="#F1F0FD" />
<rect x="14" y="10" width="1" height="1" fill="#C7250E" />
<rect x="15" y="10" width="2" height="1" fill="#CDAA6B" />
<rect x="17" y="10" width="1" height="1" fill="#C7250E" />
<rect x="21" y="10" width="1" height="5" fill="#000000" />
<rect x="12" y="11" width="1" height="2" fill="#694D3D" />
<rect x="13" y="11" width="1" height="1" fill="#C7250E" />
<rect x="14" y="11" width="2" height="1" fill="#CDAA6B" />
<rect x="16" y="11" width="2" height="1" fill="#F1F0FD" />
<rect x="20" y="11" width="1" height="1" fill="#F1F0FD" />
<rect x="13" y="12" width="2" height="1" fill="#CDAA6B" />
<rect x="15" y="12" width="1" height="1" fill="#C7250E" />
<rect x="16" y="12" width="2" height="3" fill="#CDAA6B" />
<rect x="20" y="12" width="1" height="3" fill="#9F8556" />
<rect x="13" y="13" width="1" height="3" fill="#000000" />
<rect x="14" y="13" width="2" height="2" fill="#CDAA6B" />
<rect x="18" y="13" width="1" height="1" fill="#F1F0FD" />
<rect x="19" y="13" width="1" height="2" fill="#000000" />
<rect x="18" y="14" width="1" height="1" fill="#000000" />
<rect x="22" y="14" width="3" height="1" fill="#000000" />
<rect x="25" y="14" width="1" height="1" fill="#CDAA6B" />
<rect x="14" y="15" width="3" height="1" fill="#000000" />
<rect x="17" y="15" width="1" height="1" fill="#F1F0FD" />
<rect x="18" y="15" width="1" height="1" fill="#50B34B" />
<rect x="19" y="15" width="1" height="1" fill="#9F8556" />
<rect x="20" y="15" width="1" height="4" fill="#000000" />
<rect x="21" y="15" width="3" height="1" fill="#F1F0FD" />
<rect x="24" y="15" width="1" height="1" fill="#000000" />
<rect x="25" y="15" width="1" height="1" fill="#9F8556" />
<rect x="12" y="16" width="1" height="3" fill="#000000" />
<rect x="13" y="16" width="2" height="1" fill="#50B34B" />
<rect x="15" y="16" width="1" height="1" fill="#F1F0FD" />
<rect x="16" y="16" width="1" height="1" fill="#D1D1D1" />
<rect x="17" y="16" width="1" height="2" fill="#000000" />
<rect x="18" y="16" width="1" height="1" fill="#F1F0FD" />
<rect x="19" y="16" width="1" height="3" fill="#D1D1D1" />
<rect x="21" y="16" width="1" height="1" fill="#D1D1D1" />
<rect x="22" y="16" width="2" height="1" fill="#000000" />
<rect x="13" y="17" width="2" height="1" fill="#D1D1D1" />
<rect x="15" y="17" width="2" height="1" fill="#000000" />
<rect x="18" y="17" width="1" height="6" fill="#D1D1D1" />
<rect x="21" y="17" width="1" height="1" fill="#000000" />
<rect x="11" y="18" width="1" height="2" fill="#000000" />
<rect x="13" y="18" width="2" height="1" fill="#000000" />
<rect x="15" y="18" width="1" height="5" fill="#F1F0FD" />
<rect x="16" y="18" width="1" height="1" fill="#000000" />
<rect x="17" y="18" width="1" height="5" fill="#F1F0FD" />
<rect x="12" y="19" width="1" height="1" fill="#50B34B" />
<rect x="13" y="19" width="2" height="1" fill="#F1F0FD" />
<rect x="16" y="19" width="1" height="4" fill="#D1D1D1" />
<rect x="19" y="19" width="1" height="4" fill="#000000" />
<rect x="10" y="20" width="1" height="2" fill="#000000" />
<rect x="11" y="20" width="2" height="4" fill="#F1F0FD" />
<rect x="13" y="20" width="1" height="2" fill="#D1D1D1" />
<rect x="14" y="20" width="1" height="3" fill="#F1F0FD" />
<rect x="9" y="21" width="1" height="1" fill="#000000" />
<rect x="8" y="22" width="1" height="2" fill="#000000" />
<rect x="9" y="22" width="1" height="2" fill="#69483A" />
<rect x="10" y="22" width="1" height="2" fill="#D1D1D1" />
<rect x="13" y="22" width="1" height="1" fill="#F1F0FD" />
<rect x="13" y="23" width="1" height="1" fill="#000000" />
<rect x="14" y="23" width="2" height="1" fill="#D1D1D1" />
<rect x="16" y="23" width="1" height="1" fill="#F1F0FD" />
<rect x="17" y="23" width="1" height="2" fill="#D1D1D1" />
<rect x="18" y="23" width="1" height="2" fill="#000000" />
<rect x="9" y="24" width="4" height="1" fill="#000000" />
<rect x="14" y="24" width="1" height="1" fill="#000000" />
<rect x="15" y="24" width="2" height="1" fill="#69483A" />
<rect x="15" y="25" width="3" height="1" fill="#000000" />
</svg>