<?xml version="1.0" encoding="UTF-8" standalone="no"?>
<!-- Created with Inkscape (http://www.inkscape.org/) -->

<svg
   width="128"
   height="127.99999"
   viewBox="0 0 33.866667 33.866664"
   version="1.1"
   id="svg1"
   xml:space="preserve"
   xmlns="http://www.w3.org/2000/svg"
   xmlns:svg="http://www.w3.org/2000/svg"><defs
     id="defs1" /><g
     id="layer1"
     style="fill:#5a473e"
     transform="translate(-0.07749465,-0.09354434)"><rect
       style="opacity:1;fill:#d58353;fill-opacity:0.858824;stroke:none;stroke-width:0.264583;stroke-linecap:round;stroke-linejoin:round;stroke-opacity:1"
       id="rect21"
       width="33.866665"
       height="33.866665"
       x="0.077494651"
       y="0.093544334" /><path
       style="fill:#5a473e"
       d="m 13.292585,27.531458 c -0.624173,-0.01337 -1.583721,-0.09142 -1.766583,-0.143699 -0.255176,-0.07295 -0.295518,-0.267918 -0.119269,-0.576421 l 0.110775,-0.193897 -0.341155,-9.16e-4 c -0.562556,-0.0015 -1.3757233,-0.04258 -1.6795523,-0.08482 -0.156878,-0.02181 -0.349512,-0.04843 -0.428075,-0.05915 -0.162895,-0.02223 -0.47024,-0.129075 -0.609683,-0.211945 -0.130707,-0.07768 -0.206544,-0.268378 -0.172995,-0.435014 0.03329,-0.165363 0.244501,-0.31195 0.602852,-0.418405 0.129197,-0.03838 0.25835,-0.08667 0.287006,-0.107311 0.09006,-0.06487 0.654508,-0.0931 1.8614163,-0.0931 h 1.167525 L 12.10103,24.941001 c -0.122353,-0.313231 -0.144876,-0.563547 -0.05545,-0.616288 0.03421,-0.02018 0.143158,-0.03697 0.242111,-0.03731 0.237963,-8.28e-4 0.446594,0.14344 0.785488,0.543165 0.14481,0.170803 0.292911,0.31152 0.329114,0.312705 0.03898,0.0013 0.123987,-0.110415 0.208429,-0.273838 0.213048,-0.412321 0.31708,-0.517236 0.512883,-0.517236 0.189755,0 0.367047,0.150647 0.572638,0.486579 0.19712,0.322091 0.23105,0.347556 0.46308,0.347556 0.167067,0 0.220233,-0.01802 0.272509,-0.09236 0.104482,-0.148583 0.731464,-0.722168 0.904963,-0.827891 0.269743,-0.164371 0.37459,-0.168974 0.487366,-0.0214 0.114882,0.150334 0.09992,0.290531 -0.0715,0.670024 -0.05953,0.13178 -0.10214,0.245102 -0.0947,0.251825 0.0074,0.0067 0.556567,0.01698 1.220281,0.0228 0.663714,0.0058 1.305486,0.02587 1.426161,0.04457 0.120675,0.0187 0.27865,0.04034 0.351055,0.04809 0.0724,0.0078 0.190886,0.04133 0.263292,0.07462 0.0724,0.03329 0.220506,0.08638 0.329114,0.11799 0.856097,0.249138 1.029637,0.805002 0.312732,1.001712 -0.1358,0.03726 -0.296276,0.08267 -0.356614,0.100911 -0.1797,0.05432 -0.740684,0.122742 -1.162871,0.141829 -1.406544,0.06359 -1.568535,0.08218 -1.426876,0.163761 0.02453,0.01413 0.0446,0.08983 0.0446,0.16824 0,0.215409 -0.147874,0.330145 -0.465843,0.36145 -0.142015,0.01398 -0.356943,0.04184 -0.477618,0.0619 -0.120676,0.02006 -0.790752,0.03835 -1.489059,0.04064 -0.698307,0.0023 -1.310459,0.0092 -1.360339,0.01546 -0.04988,0.0062 -0.307905,0.0066 -0.573391,9.58e-4 z m 2.962029,-0.112194 c 0.657974,-0.03402 1.153667,-0.104778 1.239171,-0.17688 0.08576,-0.07231 0.100545,-0.221822 0.03349,-0.338569 -0.09128,-0.158925 0.03028,-0.191042 0.841562,-0.222341 1.101626,-0.0425 2.001005,-0.176732 2.389793,-0.356675 0.08631,-0.03995 0.191345,-0.19287 0.191345,-0.27859 0,-0.0872 -0.252771,-0.302753 -0.456945,-0.389662 -0.399444,-0.170028 -0.702845,-0.272559 -0.859512,-0.290466 -0.08447,-0.0097 -0.252321,-0.03396 -0.372996,-0.05401 -0.120675,-0.02005 -0.772321,-0.03943 -1.448102,-0.04306 -0.675781,-0.0036 -1.246616,-0.02294 -1.268521,-0.04291 -0.02382,-0.02171 -0.02178,-0.05755 0.0051,-0.08915 0.07761,-0.09135 0.276114,-0.593754 0.276114,-0.698813 0,-0.12298 -0.113256,-0.217687 -0.237121,-0.198285 -0.185124,0.029 -0.624313,0.390117 -1.090645,0.896775 -0.106242,0.11543 -0.147754,0.131479 -0.340084,0.131479 -0.254273,0 -0.314005,-0.04298 -0.515904,-0.371209 -0.075,-0.121925 -0.206692,-0.285048 -0.292655,-0.362497 -0.137291,-0.123693 -0.17092,-0.136025 -0.276544,-0.101413 -0.123416,0.04044 -0.39411,0.407787 -0.479807,0.651119 -0.03344,0.09496 -0.07218,0.124935 -0.171467,0.132709 -0.111201,0.0087 -0.157456,-0.02546 -0.347675,-0.256795 -0.374069,-0.454929 -0.511084,-0.559234 -0.764397,-0.581914 -0.294325,-0.02635 -0.308654,0.0204 -0.148225,0.483672 0.0705,0.203568 0.115822,0.377237 0.100726,0.38593 -0.0151,0.0087 -0.569229,0.01905 -1.231406,0.02301 -1.1777383,0.007 -1.6974683,0.04106 -1.8506223,0.121117 -0.04191,0.02191 -0.10115,0.03984 -0.131646,0.03986 -0.113722,6.6e-5 -0.598901,0.24185 -0.644451,0.321156 -0.07513,0.130815 -0.05534,0.279511 0.05145,0.386533 0.222494,0.222972 0.860418,0.339132 2.0552373,0.37424 0.888064,0.02609 1.09329,0.04572 1.09329,0.104549 0,0.01932 -0.05703,0.132855 -0.126735,0.252307 -0.259999,0.44556 -0.09154,0.508918 1.487074,0.559285 0.896663,0.02861 2.642525,0.02304 3.291143,-0.0105 z m 2.685946,-3.280276 c -0.206921,-0.09816 -0.291176,-0.216498 -0.426031,-0.598357 -0.122302,-0.346309 -0.459571,-1.172655 -0.576416,-1.412283 -0.08691,-0.178235 -0.06231,-0.301906 0.07178,-0.360871 0.651262,-0.286393 1.18306,-0.532384 1.272574,-0.588651 0.279517,-0.175698 0.424286,-0.116144 0.569033,0.234085 0.05376,0.130086 0.113648,0.27332 0.133077,0.318298 0.01943,0.04498 0.07904,0.187578 0.132465,0.316889 0.05343,0.129311 0.114591,0.237412 0.135923,0.240223 0.02133,0.0028 0.06347,0.0085 0.09364,0.0127 0.03017,0.0042 0.100729,-0.0074 0.1568,-0.02568 0.179588,-0.05862 1.068857,-0.237467 1.180721,-0.237467 0.251821,0 0.510315,0.297368 0.48607,0.559168 -0.01272,0.137347 -0.04007,0.160514 -0.496163,0.420243 -0.572525,0.326033 -0.816461,0.456414 -1.228694,0.656721 -0.168945,0.08209 -0.46738,0.227358 -0.663188,0.322815 -0.416019,0.20281 -0.635574,0.239898 -0.841586,0.142165 z m 0.783079,-0.20022 c 0.800762,-0.373624 1.641773,-0.812098 2.136887,-1.114098 0.205368,-0.125267 0.23038,-0.156072 0.23038,-0.283747 0,-0.109369 -0.03658,-0.177306 -0.154737,-0.287407 -0.152714,-0.142299 -0.158245,-0.143813 -0.423224,-0.115879 -0.147668,0.01557 -0.453473,0.07309 -0.679568,0.127827 -0.463587,0.112235 -0.599085,0.122131 -0.662873,0.04841 -0.04521,-0.05224 -0.113593,-0.202873 -0.362253,-0.797904 -0.07766,-0.185846 -0.159862,-0.348645 -0.182662,-0.361776 -0.0382,-0.022 -0.275202,0.07736 -0.716121,0.300218 -0.291595,0.147385 -0.760027,0.338128 -0.830382,0.338128 -0.03636,0 -0.08345,0.0322 -0.104645,0.07156 -0.04134,0.07675 -0.02423,0.148208 0.0927,0.387132 0.04092,0.08361 0.0744,0.169084 0.0744,0.189941 0,0.02086 0.06126,0.172053 0.136126,0.335992 0.07487,0.16394 0.184262,0.437267 0.243097,0.607394 0.149432,0.432103 0.219029,0.558895 0.356766,0.649962 0.242657,0.160435 0.31447,0.152308 0.846115,-0.09575 z M 6.0643957,23.344187 c -0.283304,-0.139393 -0.300487,-0.226553 -0.166252,-0.843304 0.106642,-0.48997 0.14997,-0.651321 0.217659,-0.810562 0.02868,-0.06747 0.04929,-0.127724 0.04579,-0.133903 -0.01822,-0.03223 0.320294,-0.907611 0.395297,-1.02223 0.150295,-0.229681 0.224262,-0.23767 1.052986,-0.113735 0.253418,0.0379 0.538014,0.07596 0.632435,0.08459 0.299409,0.02735 0.316086,0.07523 0.187172,0.537357 -0.06177,0.221423 -0.125868,0.572485 -0.142445,0.780137 -0.01658,0.207653 -0.0523,0.394622 -0.07939,0.415488 -0.03079,0.02372 -0.160545,0.01464 -0.346174,-0.02422 -0.236233,-0.04945 -0.310232,-0.05187 -0.362026,-0.01181 -0.0358,0.02769 -0.0651,0.06785 -0.0651,0.08925 0,0.08051 -0.630365,0.897879 -0.782671,1.01486 -0.186963,0.1436 -0.351195,0.154251 -0.587283,0.03809 z m 0.439643,-0.01442 c 0.06517,-0.0316 0.160989,-0.100597 0.212924,-0.153333 0.121391,-0.123265 0.673506,-0.884648 0.673506,-0.928785 0,-0.01845 0.03456,-0.06221 0.07679,-0.09725 0.06928,-0.05748 0.1034,-0.0576 0.348858,-0.0012 0.149636,0.0344 0.299581,0.0527 0.333211,0.04067 0.04383,-0.01567 0.06873,-0.135805 0.08791,-0.424272 0.01472,-0.221324 0.0453,-0.457608 0.06796,-0.525075 0.08316,-0.247604 0.151748,-0.59411 0.122922,-0.62097 -0.0163,-0.01519 -0.123156,-0.04085 -0.237448,-0.05701 -0.114292,-0.01617 -0.403552,-0.05883 -0.6428,-0.09482 -0.239247,-0.03598 -0.52036,-0.06542 -0.624694,-0.06542 -0.170804,0 -0.200428,0.01527 -0.297412,0.153334 -0.113168,0.161098 -0.458067,1.096176 -0.574853,1.558518 -0.03769,0.149195 -0.08695,0.344863 -0.109479,0.434819 -0.124452,0.496958 -0.08896,0.640655 0.187098,0.757411 0.225405,0.09533 0.226864,0.09542 0.375501,0.02336 z m 3.9362223,-0.500912 c -0.09654,-0.0096 -0.264388,-0.04276 -0.372996,-0.07373 -0.1086073,-0.03097 -0.3455703,-0.09577 -0.5265833,-0.143993 -0.579863,-0.154495 -0.70036,-0.204966 -0.727194,-0.304586 -0.07727,-0.286859 0.04937,-1.217647 0.216313,-1.589953 0.06317,-0.140874 0.07991,-0.150654 0.256321,-0.149719 0.103806,5.49e-4 0.277598,0.0202 0.386206,0.04366 0.108608,0.02346 0.253722,0.04426 0.322477,0.04623 0.07972,0.0023 0.2760383,-0.01174 0.2382923,0.0076 -0.03255,0.0167 -0.3402656,0.04145 -0.4730086,0.02281 -0.489175,-0.06854 -0.567918,-0.07126 -0.612527,-0.02117 -0.137759,0.154669 -0.306842,0.887005 -0.308185,1.33482 -9.97e-4,0.332654 0.02586,0.358204 0.525775,0.500076 1.1807846,0.335102 1.4647206,0.356264 1.8991246,0.141543 0.273682,-0.135278 0.564446,-0.381494 0.856539,-0.725311 0.0869,-0.102285 0.18387,-0.206524 0.215497,-0.231645 0.07384,-0.05865 0.480801,-0.680186 0.711963,-1.087357 l 0.178977,-0.315252 -0.186745,-0.0435 c -0.102709,-0.02392 -0.315656,-0.07986 -0.473214,-0.124305 -0.157559,-0.04444 -0.302236,-0.0808 -0.321504,-0.0808 -0.01927,0 -0.206306,-0.06626 -0.41564,-0.147235 -0.209334,-0.08098 -0.4201,-0.161945 -0.468371,-0.179925 -0.04827,-0.01798 -0.183917,-0.07245 -0.301438,-0.121047 -0.117521,-0.04859 -0.237546,-0.07982 -0.266721,-0.06939 -0.02918,0.01043 -0.14706,0.218559 -0.261966,0.462504 -0.307755,0.653368 -0.372014,0.776464 -0.37444,0.717293 -0.0012,-0.02934 0.03445,-0.130545 0.07924,-0.224889 0.04478,-0.09434 0.168202,-0.36219 0.274262,-0.595213 0.10606,-0.233023 0.215729,-0.432152 0.243709,-0.442509 0.02798,-0.01036 0.166208,0.02998 0.307173,0.08964 0.140965,0.05966 0.295794,0.123059 0.344064,0.140885 0.04827,0.01783 0.255612,0.0967 0.46076,0.175268 0.205148,0.07857 0.550718,0.183095 0.767934,0.232276 0.484486,0.109696 0.636287,0.162877 0.636287,0.222912 0,0.145167 -0.723577,1.255135 -1.069596,1.640761 -0.667207,0.743581 -1.092845,0.959495 -1.760787,0.893198 z m 6.805088,-1.672047 c -0.110474,-0.147255 -0.200861,-0.283722 -0.200861,-0.30326 0,-0.01954 -0.01511,-0.04166 -0.03358,-0.04915 -0.01847,-0.0075 -0.160297,-0.17003 -0.315176,-0.361186 -0.15488,-0.191156 -0.297746,-0.353689 -0.317479,-0.361186 -0.06333,-0.02406 -0.03826,-0.212973 0.03157,-0.237942 0.07479,-0.02674 0.195846,-0.221888 0.195846,-0.315706 0,-0.03312 -0.04967,-0.115229 -0.110375,-0.182454 l -0.110376,-0.122226 -0.295532,0.133895 c -0.684492,0.310119 -1.476273,0.463587 -2.116631,0.410258 -0.405827,-0.0338 -1.197856,-0.187131 -1.579749,-0.305834 -0.433718,-0.134811 -1.932469,-0.837737 -2.141266,-1.00427 -0.220676,-0.176007 -0.240968,-0.314342 -0.06849,-0.466896 0.138793,-0.122758 0.88184,-1.024131 1.020437,-1.237868 0.108674,-0.167592 0.194059,-0.188715 0.350394,-0.08668 0.259177,0.169153 1.284992,0.702108 1.541035,0.800634 0.367391,0.141372 0.560992,0.185021 0.965401,0.21766 0.298804,0.02411 0.663422,0.117032 0.865693,0.220607 0.23755,0.12164 0.652819,0.245323 0.924246,0.275277 0.236086,0.02605 0.430631,-0.01882 0.777153,-0.179275 0.13266,-0.06143 0.297484,-0.102186 0.416878,-0.103091 0.254596,-0.0019 0.98363,0.193663 1.194841,0.320566 0.08999,0.05407 0.181651,0.09831 0.203693,0.09831 0.09642,0 0.486051,0.384244 0.58946,0.581312 0.247236,0.471154 0.443069,1.024514 0.491751,1.389524 l 0.03108,0.233055 -0.300983,0.179151 c -0.584252,0.34776 -1.461741,0.724519 -1.687435,0.724519 -0.09892,0 -0.156909,-0.04828 -0.321549,-0.267737 z m 1.084266,-0.08238 c 0.318919,-0.146323 0.619346,-0.288507 0.667617,-0.315966 0.04827,-0.02746 0.171687,-0.09461 0.274261,-0.14923 0.221017,-0.117683 0.228175,-0.16452 0.0978,-0.639927 -0.246699,-0.899606 -0.54987,-1.362234 -1.066188,-1.626966 -0.549459,-0.281724 -1.364645,-0.450165 -1.536275,-0.317439 -0.143032,0.110609 -0.665973,0.253189 -0.841335,0.229389 -0.450799,-0.06118 -0.691393,-0.128316 -1.109145,-0.309493 -0.341003,-0.147891 -0.50145,-0.195334 -0.658228,-0.194635 -0.114022,5.08e-4 -0.34554,-0.02657 -0.514486,-0.06018 -0.3434,-0.06831 -1.041818,-0.329023 -1.121709,-0.418721 -0.02855,-0.03205 -0.07024,-0.05828 -0.09266,-0.05828 -0.02241,0 -0.268574,-0.1288 -0.547026,-0.286223 -0.278452,-0.157422 -0.513899,-0.286223 -0.523215,-0.286223 -0.0093,0 -0.05008,0.0598 -0.09059,0.13289 -0.07538,0.136018 -0.837239,1.063439 -1.043005,1.269664 -0.06286,0.063 -0.114296,0.137761 -0.114296,0.166128 0,0.05485 0.223175,0.271322 0.279727,0.271322 0.01847,0 0.11612,0.05282 0.217009,0.117375 0.189259,0.121103 1.074673,0.5275 1.448076,0.664654 0.974705,0.358017 2.187146,0.520864 2.866138,0.38496 0.50653,-0.101385 1.167615,-0.330971 1.343947,-0.466736 0.06886,-0.05302 0.09027,-0.04876 0.197088,0.03925 0.183556,0.151221 0.191564,0.16792 0.171395,0.35739 -0.01256,0.117954 -0.05675,0.213765 -0.132644,0.28758 l -0.113814,0.110693 0.310172,0.366644 c 0.170594,0.201654 0.399027,0.495444 0.507628,0.652866 0.232561,0.33711 0.308481,0.400211 0.443577,0.368675 0.05517,-0.01288 0.361249,-0.143135 0.680169,-0.289457 z M 16.86896,19.459461 c 0,-0.02382 0.01975,-0.03193 0.04388,-0.01803 0.02414,0.0139 0.04388,0.03338 0.04388,0.0433 0,0.0099 -0.01975,0.01803 -0.04388,0.01803 -0.02414,0 -0.04388,-0.01949 -0.04388,-0.0433 z M 12.797869,18.57954 c 0.04166,-0.04053 0.08519,-0.06489 0.09674,-0.05413 0.01154,0.01076 -0.02254,0.04392 -0.07575,0.07369 -0.09243,0.05172 -0.09336,0.05085 -0.02099,-0.01956 z m 8.648337,1.617941 c -0.233879,-0.08778 -0.23958,-0.133278 -0.29968,-2.391612 -0.02364,-0.888453 -0.03543,-1.234088 -0.09,-2.639045 -0.03286,-0.845927 -0.04136,-0.828565 0.407976,-0.8334 0.273231,-0.0029 0.291395,0.0027 0.319761,0.09942 0.01654,0.05639 0.04349,0.580795 0.0599,1.165335 0.0164,0.584541 0.04099,1.467602 0.05464,1.962358 0.01365,0.494757 0.03913,1.230758 0.05661,1.635559 0.01781,0.412327 0.01459,0.784147 -0.0073,0.84548 -0.0245,0.06862 -0.08947,0.125844 -0.174102,0.153333 -0.157249,0.05108 -0.197716,0.0514 -0.327795,0.0026 z m 0.286041,-0.06709 c 0.05616,-0.01401 0.117395,-0.06436 0.136089,-0.111886 0.01869,-0.04753 0.01864,-0.399211 -1.11e-4,-0.781523 -0.01875,-0.382312 -0.04786,-1.293114 -0.06467,-2.024004 -0.01682,-0.73089 -0.04296,-1.660092 -0.05811,-2.064893 l -0.02753,-0.736001 -0.178087,-0.01219 c -0.09795,-0.0067 -0.233052,0.0073 -0.300232,0.03108 l -0.122147,0.04327 0.02608,0.643586 c 0.0332,0.819505 0.06306,1.758477 0.09135,2.872034 0.02737,1.077832 0.06237,1.825302 0.09211,1.967573 0.03174,0.151816 0.200807,0.223965 0.405267,0.17295 z M 15.70609,17.632327 C 15.440246,17.586747 14.92562,17.374 14.730138,17.228863 l -0.116287,-0.08634 0.07902,-0.342997 c 0.04346,-0.188648 0.09586,-0.379796 0.11644,-0.424774 0.02058,-0.04498 0.05837,-0.158674 0.08399,-0.252657 0.03642,-0.133648 0.09308,-0.202693 0.260032,-0.31689 0.117405,-0.0803 0.226712,-0.14601 0.242904,-0.14601 0.01619,0 0.11898,-0.03801 0.228419,-0.08446 0.109438,-0.04645 0.331298,-0.0948 0.493021,-0.107433 0.246132,-0.01923 0.324256,-0.0086 0.479478,0.06518 0.190692,0.09065 0.444868,0.402897 0.446503,0.548516 4.59e-4,0.04083 0.01825,0.105234 0.03954,0.143112 0.07629,0.135755 -0.06941,0.793714 -0.206012,0.930342 -0.04458,0.04459 -0.114002,0.127922 -0.154268,0.185184 -0.142576,0.202757 -0.664723,0.353057 -1.016819,0.292692 z m 0.697304,-0.178451 c 0.436907,-0.208877 0.695309,-0.830048 0.549228,-1.32029 -0.164911,-0.553436 -0.656645,-0.713674 -1.348385,-0.439389 -0.172777,0.06851 -0.339023,0.144488 -0.369435,0.168842 -0.03041,0.02435 -0.09003,0.06665 -0.132474,0.094 -0.07203,0.0464 -0.28609,0.685584 -0.306479,0.915134 -0.0047,0.05251 -0.02392,0.09547 -0.04279,0.09547 -0.0827,0 -0.01799,0.151559 0.102672,0.240467 0.407015,0.299901 1.178255,0.422371 1.547664,0.245765 z m -0.499836,-0.162948 c 0,-0.02038 0.03949,-0.03706 0.08776,-0.03706 0.04827,0 0.08776,0.0071 0.08776,0.01567 0,0.0086 -0.03949,0.0253 -0.08776,0.03706 -0.04827,0.01176 -0.08776,0.0047 -0.08776,-0.01568 z m -0.227637,-0.0241 c 0.03168,-0.01181 0.06952,-0.01036 0.08411,0.0032 0.01458,0.01359 -0.01134,0.02325 -0.05759,0.02148 -0.05112,-0.002 -0.06152,-0.01165 -0.02651,-0.0247 z m 0.502734,-4.04e-4 c 0.0427,-0.01037 0.101937,-0.0097 0.131646,0.0015 0.02971,0.0112 -0.0052,0.01968 -0.07763,0.01885 -0.0724,-8.34e-4 -0.09671,-0.01 -0.05402,-0.02036 z m -0.735857,-0.05344 c -0.05787,-0.02317 -0.06534,-0.03591 -0.02194,-0.03739 0.0362,-0.0012 0.09544,0.01559 0.131646,0.03739 0.08021,0.0483 0.01093,0.0483 -0.109706,0 z m -0.197468,-0.08419 c 0,-0.02382 0.01975,-0.03193 0.04388,-0.01803 0.02413,0.0139 0.04388,0.03338 0.04388,0.0433 0,0.0099 -0.01975,0.01803 -0.04388,0.01803 -0.02414,0 -0.04388,-0.01949 -0.04388,-0.0433 z m -0.263292,-0.122667 c 0,-0.02382 0.01975,-0.03193 0.04388,-0.01803 0.02414,0.0139 0.04388,0.03338 0.04388,0.0433 0,0.0099 -0.01975,0.01803 -0.04388,0.01803 -0.02413,0 -0.04388,-0.01949 -0.04388,-0.0433 z m -1.426161,0.0842 c -0.478119,-0.06686 -1.649041,-0.690276 -2.028214,-1.079848 -0.222869,-0.228982 -0.294476,-0.445275 -0.260644,-0.787298 0.05133,-0.518907 0.401945,-0.944167 1.098544,-1.332419 0.232009,-0.129312 0.450412,-0.235112 0.485341,-0.235112 0.03493,0 0.07571,-0.0184 0.09063,-0.04089 0.01492,-0.02249 0.07137,-0.04089 0.125459,-0.04089 0.05409,0 0.117098,-0.01644 0.140026,-0.03654 0.101929,-0.08935 0.815771,-0.20879 1.247858,-0.20879 0.51308,0 1.238755,0.134782 1.635028,0.303678 0.135769,0.05787 0.275626,0.105212 0.310793,0.105212 0.08255,0 0.1004,0.04793 0.165582,0.444681 0.05882,0.358009 0.0073,0.72895 -0.114379,0.82302 -0.03368,0.02604 -0.229604,0.06165 -0.435393,0.07913 -0.205789,0.01748 -0.399313,0.04895 -0.430052,0.06995 -0.03074,0.02099 -0.134877,0.06303 -0.231417,0.09341 -0.09654,0.03038 -0.221962,0.08893 -0.278714,0.130121 -0.165508,0.120109 -0.388899,0.142101 -0.502644,0.04948 -0.05295,-0.04312 -0.155521,-0.10516 -0.227926,-0.137869 -0.0724,-0.03271 -0.335073,-0.248071 -0.583706,-0.478583 -0.480851,-0.445804 -0.593093,-0.497059 -0.671563,-0.306667 -0.03687,0.08945 -0.03006,0.141711 0.0333,0.255556 0.131057,0.23548 0.622662,0.683116 0.99393,0.90503 l 0.34798,0.207996 -0.0293,0.241308 c -0.03891,0.320497 -0.172886,0.788078 -0.262188,0.915074 -0.07805,0.110991 -0.186159,0.121703 -0.618332,0.06127 z m 0.571344,-0.109216 c 0.04006,-0.05697 0.06328,-0.13762 0.05161,-0.179224 -0.01168,-0.0416 -0.0043,-0.08113 0.01645,-0.08783 0.04122,-0.01333 0.172413,-0.551609 0.172413,-0.707387 0,-0.07611 -0.07786,-0.145094 -0.362026,-0.320738 -0.791406,-0.489173 -1.176528,-1.049414 -0.914736,-1.330675 0.120616,-0.129587 0.262057,-0.07993 0.468008,0.164305 0.247457,0.293456 1.061951,0.894552 1.211597,0.894157 0.03185,-8.4e-5 0.120316,-0.03561 0.196582,-0.07894 0.26329,-0.149594 0.809752,-0.329799 1.000095,-0.329799 0.362611,0 0.446865,-0.03413 0.501171,-0.203027 0.06239,-0.194029 0.06235,-0.342642 -1.92e-4,-0.695499 l -0.04971,-0.2805 -0.356193,-0.123091 c -0.580518,-0.200611 -0.895867,-0.261213 -1.470475,-0.282586 -0.511796,-0.01904 -0.8752,0.01797 -1.123695,0.114444 -0.04827,0.01874 -0.245739,0.08302 -0.438819,0.142841 -0.193081,0.05982 -0.382231,0.134566 -0.420334,0.166093 -0.0381,0.03153 -0.08574,0.05732 -0.105863,0.05732 -0.02012,0 -0.137048,0.05838 -0.259836,0.129724 -0.607894,0.35323 -0.956438,0.879266 -0.921558,1.390854 0.02848,0.417699 0.294101,0.66935 1.343403,1.272744 0.189023,0.108697 0.786851,0.324615 0.978534,0.353419 0.341121,0.05126 0.407083,0.04217 0.483581,-0.06661 z m -1.624015,-1.061158 c -0.04148,-0.05899 -0.05373,-0.09477 -0.02722,-0.0795 0.05066,0.02917 0.152827,0.186758 0.121083,0.186758 -0.01014,0 -0.05238,-0.04827 -0.09386,-0.107257 z m -0.197964,-1.707295 c 0,-0.0085 0.03456,-0.04069 0.07679,-0.07156 0.0696,-0.05086 0.07115,-0.04941 0.01657,0.01544 -0.05733,0.06811 -0.09336,0.08977 -0.09336,0.05612 z M 9.9195637,16.84384 c -0.141573,-0.06546 -0.297508,-0.130885 -0.346522,-0.145381 -0.152546,-0.04511 -0.42393,-0.2389 -0.424695,-0.303259 -4e-4,-0.03373 0.07774,-0.113064 0.173653,-0.17629 0.09591,-0.06323 0.36869,-0.284026 0.606179,-0.490667 0.7136093,-0.620917 0.7570463,-0.654569 0.7957543,-0.616502 0.02033,0.01999 0.05017,0.201945 0.06631,0.404346 0.01614,0.2024 0.04767,0.385481 0.07006,0.406845 0.168467,0.160727 -0.343933,1.049755 -0.600754,1.042323 -0.04542,-0.0013 -0.198415,-0.05595 -0.3399883,-0.121415 z m 0.5405683,-0.105134 c 0.07627,-0.08094 0.188742,-0.251139 0.249944,-0.378223 0.102656,-0.213159 0.107146,-0.246488 0.05795,-0.430168 -0.05362,-0.200186 -0.07271,-0.338733 -0.0816,-0.592217 l -0.0048,-0.1371 -0.296203,0.246239 c -0.162911,0.135432 -0.385064,0.324192 -0.4936713,0.419467 -0.108608,0.09528 -0.301823,0.246654 -0.429366,0.336398 -0.127544,0.08974 -0.224649,0.183431 -0.21579,0.208196 0.01946,0.05441 0.9004383,0.469577 1.0026363,0.472502 0.03974,0.0011 0.134647,-0.06415 0.210914,-0.145094 z M 6.6664167,16.423893 c -0.361092,-0.05813 -0.84738,-0.295687 -1.175619,-0.574304 -0.163889,-0.139114 -0.321864,-0.291628 -0.351055,-0.338921 -0.02919,-0.04729 -0.09076,-0.135642 -0.136823,-0.196332 -0.145471,-0.191668 -0.297362,-0.679683 -0.32118,-1.031926 -0.01829,-0.270554 -0.0041,-0.39113 0.07478,-0.633779 0.05356,-0.164813 0.130002,-0.316961 0.169879,-0.338107 0.03988,-0.02115 0.339086,-0.04096 0.664909,-0.04404 0.537988,-0.0051 0.632063,-0.0176 1.024117,-0.136326 0.66388,-0.201046 1.415228,-0.508734 1.726408,-0.706989 0.100889,-0.06428 0.198181,-0.116868 0.216205,-0.116868 0.01802,0 0.202061,-0.07639 0.408972,-0.169754 0.950291,-0.428801 1.2925233,-0.566145 1.6121383,-0.64698 0.189096,-0.04783 0.383305,-0.103127 0.431575,-0.122894 0.66008,-0.270295 2.02258,-0.39766 2.836775,-0.265177 0.459816,0.07482 1.307327,0.355517 1.485593,0.492032 0.0362,0.02772 0.194177,0.100004 0.351055,0.160623 0.156878,0.06062 0.433334,0.173531 0.614347,0.250915 0.698896,0.298781 0.762726,0.347039 0.732919,0.554111 -0.02457,0.17065 -0.363766,0.68757 -0.451182,0.68757 -0.0314,0 -0.197244,-0.04711 -0.368534,-0.104679 -0.294193,-0.09888 -0.650893,-0.184719 -1.098015,-0.264223 -0.45749,-0.08135 -1.396423,-0.02116 -1.658679,0.10633 -0.0652,0.03169 -0.145769,0.05774 -0.179052,0.05788 -0.101259,4.21e-4 -0.626847,0.1902 -0.882947,0.318813 -0.693772,0.348413 -1.575915,0.926594 -2.040561,1.337442 -1.0585503,0.935986 -1.7635783,1.431198 -2.2423803,1.575049 -0.09409,0.02827 -0.210566,0.06648 -0.258836,0.08491 -0.302174,0.115399 -0.728816,0.13903 -1.184811,0.06562 z m 0.877638,-0.07174 c 0.09654,-0.02342 0.215022,-0.05757 0.263292,-0.07588 0.04827,-0.01831 0.164746,-0.05642 0.258836,-0.08469 0.377143,-0.113308 1.046385,-0.544834 1.580684,-1.019222 0.16701,-0.148282 0.3610613,-0.320205 0.4312243,-0.382049 0.07016,-0.06184 0.144818,-0.112445 0.165897,-0.112445 0.02108,0 0.05412,-0.02594 0.07342,-0.05764 0.0193,-0.0317 0.163446,-0.15309 0.320324,-0.269753 0.156878,-0.116663 0.295106,-0.224126 0.307173,-0.238807 0.01207,-0.01468 0.05563,-0.04509 0.09681,-0.06758 0.04118,-0.02249 0.268266,-0.162486 0.504642,-0.311105 0.236376,-0.14862 0.518635,-0.313636 0.627243,-0.366704 0.108607,-0.05307 0.227088,-0.117918 0.263291,-0.14411 0.0362,-0.02619 0.199114,-0.08906 0.362026,-0.139704 0.162911,-0.05065 0.296291,-0.103399 0.296399,-0.11723 1.09e-4,-0.01383 0.07056,-0.02853 0.156551,-0.03266 0.086,-0.0041 0.181663,-0.02708 0.212595,-0.051 0.156551,-0.121064 1.349817,-0.180298 1.736989,-0.08623 0.108608,0.02639 0.296203,0.06607 0.416878,0.08818 0.120675,0.02211 0.374587,0.08853 0.564248,0.147595 0.379403,0.11816 0.429981,0.109676 0.564388,-0.09467 0.148509,-0.225784 0.213548,-0.391068 0.185866,-0.472338 -0.02747,-0.08066 -0.510555,-0.316338 -1.248679,-0.609196 -0.181013,-0.07182 -0.358735,-0.152954 -0.394937,-0.180301 -0.132649,-0.100201 -0.877638,-0.373792 -0.877638,-0.322305 0,0.01262 -0.04542,-0.0048 -0.100924,-0.03867 -0.207189,-0.126497 -1.366838,-0.225443 -1.82988,-0.156134 -0.156878,0.02348 -0.379655,0.05201 -0.495061,0.0634 -0.201726,0.01991 -0.748771,0.153763 -0.931101,0.227827 -0.04827,0.01961 -0.245739,0.07558 -0.438819,0.124372 -0.331358,0.08374 -1.0412113,0.37883 -1.9308043,0.802635 -1.096026,0.522152 -1.337627,0.627646 -1.636422,0.714539 -0.101573,0.02954 -0.184677,0.06871 -0.184677,0.08705 0,0.01834 -0.01975,0.02198 -0.04388,0.0081 -0.02414,-0.0139 -0.06856,-0.01051 -0.09873,0.0075 -0.145028,0.08674 -0.503888,0.140449 -1.05874,0.158454 -0.334922,0.01087 -0.636874,0.03432 -0.671003,0.05212 -0.09569,0.0499 -0.206095,0.445539 -0.212916,0.762981 -0.0082,0.383424 0.185891,0.986981 0.379852,1.180973 0.04499,0.04499 0.08179,0.105023 0.08179,0.133398 0,0.02838 0.02804,0.06631 0.0623,0.08429 0.03427,0.01798 0.167557,0.125149 0.296202,0.238143 0.128646,0.112994 0.382003,0.273518 0.563016,0.356719 0.272445,0.125227 0.400895,0.15754 0.745992,0.187664 0.229283,0.02002 0.426752,0.03879 0.438819,0.04172 0.01207,0.0029 0.100929,-0.01383 0.197469,-0.03726 z m -1.426161,-0.754288 c 0,-0.03373 0.02962,-0.06133 0.06582,-0.06133 0.0362,0 0.06582,0.0276 0.06582,0.06133 0,0.03373 -0.02962,0.06133 -0.06582,0.06133 -0.0362,0 -0.06582,-0.0276 -0.06582,-0.06133 z m 2.666099,-1.274279 c 0.03032,-0.01139 0.04208,-0.04038 0.02613,-0.06442 -0.01728,-0.02605 -0.0082,-0.03176 0.02238,-0.01413 0.06041,0.03479 0.02414,0.107151 -0.05138,0.102486 -0.03741,-0.0023 -0.03659,-0.0091 0.0029,-0.02394 z m -0.544334,-0.739915 c 0.01595,-0.02404 0.0042,-0.05303 -0.02613,-0.06442 -0.03326,-0.01249 -0.02466,-0.02199 0.02167,-0.02394 0.08684,-0.0036 0.102701,0.0588 0.02613,0.102899 -0.02994,0.01724 -0.0388,0.0113 -0.02167,-0.01454 z m 10.0189993,2.033033 c -0.116596,-0.0184 -0.304191,-0.06236 -0.416878,-0.09769 -0.112688,-0.03533 -0.346096,-0.102282 -0.518685,-0.148781 -0.230682,-0.06215 -0.319798,-0.105922 -0.336451,-0.165259 -0.01246,-0.04439 -0.01234,-0.275173 2.71e-4,-0.512843 0.01337,-0.251974 6.29e-4,-0.565664 -0.03055,-0.752436 l -0.05348,-0.320309 0.153583,-0.176097 c 0.167871,-0.19248 0.339073,-0.472057 0.339073,-0.553715 0,-0.07276 0.240509,-0.06523 0.307173,0.0096 0.03005,0.03373 0.07476,0.06133 0.09937,0.06133 0.02461,0 0.165352,0.07075 0.31277,0.157228 0.147419,0.08648 0.338509,0.188191 0.424646,0.226035 l 0.156611,0.06881 0.326089,-0.199761 c 0.179349,-0.109869 0.389002,-0.229848 0.465896,-0.266621 0.129429,-0.0619 0.14514,-0.06189 0.211639,7.2e-5 0.03951,0.03681 0.130519,0.160877 0.20225,0.275697 0.174963,0.280068 0.20011,0.318054 0.466558,0.704776 0.126709,0.183905 0.22968,0.359137 0.228825,0.389404 -0.0046,0.161643 -0.09888,0.240238 -1.02967,0.858047 -0.746792,0.495682 -0.81845,0.519905 -1.309038,0.442493 z m 0.952195,-0.285721 c 0.189897,-0.123082 0.41255,-0.269786 0.494784,-0.326008 0.08223,-0.05622 0.276167,-0.185023 0.430963,-0.286223 0.393959,-0.257556 0.460031,-0.409755 0.262597,-0.604897 -0.09476,-0.09366 -0.339104,-0.462577 -0.574305,-0.867106 -0.03269,-0.05622 -0.09498,-0.144654 -0.138419,-0.196515 l -0.07898,-0.09429 -0.436774,0.267418 c -0.457161,0.279901 -0.544285,0.308389 -0.634241,0.207391 -0.03005,-0.03373 -0.07689,-0.06205 -0.104108,-0.06293 -0.02721,-8.75e-4 -0.158087,-0.06391 -0.29083,-0.140086 -0.372736,-0.213889 -0.66968,-0.358447 -0.637909,-0.310546 0.01581,0.02383 0.01,0.04333 -0.01297,0.04333 -0.02294,0 -0.05356,0.04396 -0.06803,0.0977 -0.01447,0.05373 -0.114937,0.207548 -0.223253,0.341813 l -0.196938,0.244117 0.05748,0.363521 c 0.03473,0.219667 0.04305,0.411957 0.02103,0.485919 -0.05736,0.192611 -0.04482,0.699906 0.0184,0.744532 0.03017,0.02129 0.173334,0.0693 0.318144,0.106673 0.14481,0.03737 0.391646,0.104206 0.548524,0.148515 0.191066,0.05396 0.386642,0.07741 0.592406,0.07101 0.294044,-0.0091 0.321928,-0.01911 0.652439,-0.233338 z m 0.541935,-0.818938 c 0.07767,-0.07516 0.152253,-0.126365 0.165751,-0.113787 0.0135,0.01258 -0.05005,0.07407 -0.141209,0.136655 L 19.611578,14.6487 Z m 1.067974,-0.82574 c -0.07352,-0.07309 -0.133758,-0.149841 -0.13387,-0.170559 -1.12e-4,-0.02072 -0.02878,-0.06709 -0.0637,-0.10305 -0.03492,-0.03596 -0.163971,-0.249008 -0.28677,-0.473442 -0.219193,-0.400608 -0.222744,-0.412918 -0.194368,-0.673841 0.0159,-0.146178 0.04889,-0.302578 0.07331,-0.347556 0.145763,-0.268422 0.732414,-0.525296 0.969651,-0.424576 0.08909,0.03782 0.123576,0.03493 0.176985,-0.01483 0.105357,-0.09817 0.437672,-0.128159 0.592655,-0.05348 0.313709,0.151161 0.46537,0.485021 0.46537,1.024445 0,0.758326 -0.579114,1.369781 -1.297331,1.369781 -0.133163,0 -0.196148,-0.02772 -0.301931,-0.132889 z m 0.687396,-0.03037 c 0.302518,-0.09908 0.503293,-0.272773 0.661181,-0.572013 0.106931,-0.202665 0.118901,-0.269285 0.117679,-0.654948 -0.0011,-0.357973 -0.0177,-0.461552 -0.09964,-0.623168 -0.05405,-0.106608 -0.147324,-0.223776 -0.207267,-0.260373 -0.137285,-0.08382 -0.46163,-0.08386 -0.527383,-7.1e-5 -0.03658,0.04662 -0.125785,0.05971 -0.364714,0.05355 -0.224141,-0.0058 -0.326907,0.0077 -0.352741,0.04644 -0.02005,0.03003 -0.05399,0.05588 -0.07543,0.05744 -0.09209,0.0067 -0.325591,0.182567 -0.368039,0.277209 -0.09626,0.214628 -0.06785,0.546594 0.06867,0.80234 0.07032,0.131739 0.137933,0.248725 0.150244,0.259969 0.01231,0.01125 0.05794,0.08484 0.10139,0.163556 0.165546,0.299876 0.21229,0.368001 0.252504,0.368001 0.02282,0 0.04149,0.02607 0.04149,0.05793 0,0.125607 0.260367,0.136049 0.60206,0.02414 z m -0.470414,-0.425252 c 0,-0.0088 0.02962,-0.02666 0.06582,-0.0396 0.0362,-0.01295 0.06582,-0.0057 0.06582,0.01607 0,0.02178 -0.02962,0.0396 -0.06582,0.0396 -0.0362,0 -0.06582,-0.0072 -0.06582,-0.01607 z m 0.175528,-0.185961 c 0,-0.02116 0.01952,-0.04972 0.04338,-0.06346 0.02487,-0.01433 0.03223,0.0021 0.01725,0.03848 -0.02917,0.07084 -0.06063,0.0838 -0.06063,0.02498 z m 0.237181,-0.134598 c -0.04672,-0.05103 -0.05352,-0.06979 -0.01541,-0.04254 0.0375,0.02682 0.11649,0.06673 0.175528,0.0887 0.0979,0.03643 0.09925,0.04017 0.01541,0.04254 -0.05056,0.0014 -0.12955,-0.03849 -0.175528,-0.0887 z m 0.561933,-0.04769 c 0.03112,-0.03146 0.0635,-0.05109 0.07195,-0.04361 0.02603,0.02304 -0.03994,0.100819 -0.08551,0.100819 -0.02366,0 -0.01756,-0.02574 0.01356,-0.05721 z m -6.067579,-1.439913 c -0.179565,-0.08128 -0.415342,-0.198605 -0.52395,-0.260723 -0.108607,-0.06212 -0.323582,-0.156618 -0.477722,-0.209998 -0.223485,-0.0774 -0.291638,-0.12207 -0.336461,-0.22055 -0.0757,-0.166328 -0.111613,-0.589992 -0.05793,-0.683456 0.02382,-0.04147 0.155739,-0.1229004 0.293154,-0.1809494 0.137416,-0.05805 0.34858,-0.147611 0.469256,-0.199024 0.192871,-0.08217 0.666312,-0.281116 0.92152,-0.387233 0.04827,-0.02007 0.186498,-0.07621 0.307173,-0.124749 0.213345,-0.08582 0.525045,-0.216521 1.042674,-0.437221 0.191398,-0.0816 0.265131,-0.09629 0.30357,-0.06048 0.07635,0.07114 0.162709,0.315865 0.252134,0.714467 0.07198,0.320849 0.0765,0.451733 0.0314,0.9096924 -0.03548,0.360252 -0.456148,0.907707 -0.839906,1.093039 -0.242585,0.117154 -0.572653,0.193902 -0.83639,0.194478 -0.166346,3.64e-4 -0.303937,-0.03658 -0.548523,-0.147295 z m 1.036422,-0.0098 c 0.386203,-0.105554 0.830045,-0.472812 0.978498,-0.809659 0.175616,-0.398483 0.165618,-1.2561074 -0.0185,-1.5867864 -0.03464,-0.06222 -0.06298,-0.144754 -0.06298,-0.183413 0,-0.119573 -0.04525,-0.123111 -0.278849,-0.0218 -0.218235,0.09464 -0.632545,0.269457 -0.949844,0.400773 -0.08447,0.03496 -0.273213,0.109457 -0.419423,0.165551 -0.267671,0.102694 -1.072963,0.446516 -1.214583,0.518571 -0.04191,0.02132 -0.103898,0.03877 -0.137755,0.03877 -0.03386,0 -0.105166,0.0329 -0.158466,0.07312 -0.07834,0.05911 -0.09657,0.114454 -0.09512,0.288798 0.0032,0.380541 0.05633,0.463245 0.368636,0.57339 0.150935,0.05323 0.323794,0.126766 0.384132,0.163408 0.06034,0.03664 0.297299,0.154753 0.526582,0.262473 0.392591,0.184442 0.432218,0.194618 0.68017,0.174671 0.14481,-0.01165 0.323685,-0.03769 0.397501,-0.05786 z m -1.473488,-0.518094 c -0.03053,-0.03428 -0.04442,-0.07265 -0.03087,-0.08528 0.01355,-0.01263 0.04668,0.01542 0.07362,0.06232 0.05748,0.100075 0.03614,0.111534 -0.04275,0.02296 z M 15.362348,10.43904 c -0.01609,-0.01499 -0.02865,-0.05639 -0.02792,-0.092 0.0011,-0.05317 0.0097,-0.0514 0.0479,0.0099 0.04725,0.07571 0.03355,0.132003 -0.01998,0.08212 z m 0.05851,-0.271154 c 0,-0.03669 0.04443,-0.08843 0.09874,-0.114987 l 0.09873,-0.04828 -0.0873,0.09795 c -0.04801,0.05387 -0.09244,0.105616 -0.09873,0.114986 -0.0063,0.0094 -0.01144,-0.01298 -0.01144,-0.04967 z m 0.329115,-0.2244634 c 0.0724,-0.04361 0.140202,-0.07229 0.150661,-0.06375 0.03196,0.02612 -0.05679,0.0852 -0.172602,0.1149 -0.100265,0.02571 -0.09838,0.02131 0.02194,-0.05115 z m 0.46076,-0.233569 c 0.156878,-0.07653 0.314852,-0.139376 0.351055,-0.139659 0.0362,-2.83e-4 -0.08,0.06322 -0.258225,0.141127 -0.412528,0.180318 -0.463813,0.179506 -0.09283,-0.0015 z m 0.438819,-0.15973 c 0,-0.0082 0.04937,-0.04501 0.109704,-0.08184 0.06034,-0.03684 0.109705,-0.05111 0.109705,-0.03171 0,0.0194 -0.04937,0.05623 -0.109705,0.08184 -0.06034,0.02562 -0.109704,0.03989 -0.109704,0.03171 z m 0.307173,-0.12277 c 0,-0.0078 0.02962,-0.03706 0.06582,-0.06506 0.03794,-0.02934 0.06582,-0.03331 0.06582,-0.0094 0,0.02284 -0.02962,0.05211 -0.06582,0.06506 -0.0362,0.01295 -0.06582,0.01717 -0.06582,0.0094 z m 0.263291,-0.121687 c 0,-0.0087 0.0543,-0.04831 0.120676,-0.08811 l 0.120675,-0.07237 -0.08359,0.08811 c -0.07397,0.07797 -0.157756,0.1164 -0.157756,0.07237 z m 3.786126,1.8140344 c -0.12892,-0.04834 -0.137129,-0.09748 -0.163763,-0.980513 -0.04302,-1.4260854 -0.07836,-2.3924714 -0.107678,-2.9440054 -0.02037,-0.38315 -0.01351,-0.595778 0.02241,-0.695113 0.02847,-0.07871 0.08312,-0.244805 0.121465,-0.369097 0.297037,-0.96295 1.758912,-1.308717 2.565056,-0.606696 0.16569,0.144289 0.376721,0.518633 0.423312,0.750904 0.05664,0.282358 0.02661,0.943422 -0.05828,1.283125 -0.141165,0.564928 -0.353436,0.779289 -0.688696,0.695482 -0.313728,-0.07842 -0.403625,-0.292738 -0.241225,-0.575076 0.09441,-0.164134 0.237016,-0.830433 0.226007,-1.055975 -0.01857,-0.380347 -0.245743,-0.636504 -0.612394,-0.69051 -0.191684,-0.02824 -0.260362,-0.01925 -0.435201,0.05692 -0.260812,0.113627 -0.34299,0.199911 -0.449854,0.472339 -0.08722,0.222354 -0.09187,0.546341 -0.02254,1.571921 0.01216,0.179912 0.03289,0.676713 0.04605,1.104002 0.01317,0.42729 0.03372,1.0458974 0.04567,1.3746824 l 0.02173,0.59779 -0.138259,0.02577 c -0.188908,0.0352 -0.436408,0.02808 -0.553825,-0.01595 z m 0.505616,-0.0664 c 0.100729,-0.02514 0.100951,-0.02682 0.07674,-0.582109 -0.01336,-0.306294 -0.03399,-0.8788984 -0.04586,-1.2724544 -0.01187,-0.393557 -0.03197,-0.927158 -0.04467,-1.18578 -0.0127,-0.258623 -0.03186,-0.649863 -0.04258,-0.869422 -0.01582,-0.323872 -0.0024,-0.45118 0.07105,-0.674668 0.104905,-0.319137 0.155746,-0.381555 0.425007,-0.521784 0.581076,-0.302619 1.225042,0.04488 1.239619,0.668919 0.0063,0.268752 -0.115095,0.854479 -0.225062,1.086122 -0.145014,0.30547 -0.04973,0.474986 0.271784,0.483504 0.206228,0.0055 0.336422,-0.149939 0.456473,-0.544855 0.111314,-0.366174 0.148498,-0.940053 0.08583,-1.324708 -0.06733,-0.413324 -0.313531,-0.72833 -0.737452,-0.943556 -0.187909,-0.0954 -0.294752,-0.118599 -0.611653,-0.132797 -0.221705,-0.0099 -0.407151,1.94e-4 -0.438819,0.02397 -0.03017,0.02264 -0.114513,0.05303 -0.18744,0.06753 -0.178373,0.03547 -0.538066,0.294123 -0.687961,0.494716 -0.09883,0.132259 -0.29649,0.684538 -0.307126,0.858143 -0.0037,0.06073 0.05005,1.645519 0.07422,2.18756 0.01153,0.258623 0.03277,0.838224 0.04719,1.2880024 0.02191,0.683298 0.03783,0.826185 0.09679,0.868891 0.07494,0.05428 0.316224,0.06664 0.483924,0.02478 z M 11.530204,9.9703416 c -0.225431,-0.04813 -0.286903,-0.113535 -0.286903,-0.305273 0,-0.204507 0.05258,-0.245564 0.776781,-0.606549 0.170695,-0.08509 0.717168,-0.439219 0.784076,-0.508109 0.06079,-0.06259 0.06122,-0.128162 0.0042,-0.632768 -0.06086,-0.538186 -0.05279,-0.70295 0.04986,-1.018457 0.04697,-0.144366 0.8804,-0.597974 1.421749,-0.773812 1.091781,-0.354626 1.595676,-0.397708 2.06419,-0.176487 0.316258,0.14933 0.516922,0.333613 0.80943,0.743354 0.141282,0.197905 0.264098,0.368143 0.272927,0.378308 0.02842,0.03273 0.336079,-3.63e-4 0.389825,-0.04193 0.0603,-0.04663 0.594252,-0.155218 0.926584,-0.188434 0.314083,-0.03139 0.423728,0.0032 0.515938,0.162737 0.07425,0.128464 0.07464,0.145331 0.0065,0.276968 -0.101206,0.19559 -0.363058,0.361775 -1.123816,0.713233 -0.823861,0.380612 -1.116764,0.510499 -1.151204,0.510499 -0.01986,0 -0.178707,0.06295 -0.352999,0.139894 -1.116946,0.493076 -3.243177,1.121328 -4.288208,1.267067 -0.229283,0.03198 -0.466245,0.06727 -0.526583,0.07844 -0.06034,0.01117 -0.19189,0.0028 -0.292338,-0.01869 z m 0.577571,-0.100975 c 0.427161,-0.04585 1.084062,-0.184098 1.62363,-0.341708 0.14481,-0.0423 0.411393,-0.116675 0.592406,-0.165279 0.181013,-0.0486 0.457469,-0.135403 0.614347,-0.192888 0.156877,-0.05748 0.364219,-0.128558 0.460759,-0.157941 0.319794,-0.09733 1.000319,-0.344411 1.049078,-0.380888 0.02638,-0.01974 0.156578,-0.07737 0.289321,-0.128062 0.505136,-0.192917 1.510622,-0.643664 1.908861,-0.85572 0.5221,-0.278009 0.657805,-0.443354 0.522177,-0.636231 -0.07364,-0.104725 -0.09091,-0.109126 -0.343739,-0.0876 -0.277265,0.0236 -0.538182,0.06998 -0.836665,0.148702 -0.56498,0.149012 -0.584527,0.14659 -0.738884,-0.09155 -0.666826,-1.02879 -1.200932,-1.250332 -2.310909,-0.958537 -0.879982,0.231332 -1.818376,0.659994 -1.995156,0.911393 -0.108348,0.154082 -0.114443,0.809117 -0.01246,1.339273 l 0.04596,0.238919 -0.149129,0.120402 c -0.217448,0.175561 -0.666185,0.446503 -1.09259,0.659691 -0.306516,0.153247 -0.380013,0.209049 -0.412365,0.313078 -0.06921,0.222535 0.14048,0.348219 0.500128,0.299775 0.08447,-0.01138 0.212828,-0.02705 0.285233,-0.03482 z m 1.295492,-0.755815 c 5.36e-4,-0.03186 0.04122,-0.103926 0.0904,-0.160148 l 0.08943,-0.102222 -0.07404,0.143111 c -0.09056,0.175021 -0.107042,0.193608 -0.105789,0.119259 z m 0.334705,-0.337876 c 0.07297,-0.09146 0.308934,-0.187209 0.252807,-0.102588 -0.01276,0.01924 -0.05166,0.03498 -0.08644,0.03498 -0.03478,0 -0.06323,0.01397 -0.06323,0.03105 0,0.01708 -0.04148,0.05519 -0.09217,0.08469 -0.09158,0.05329 -0.09165,0.05298 -0.01097,-0.04813 z m 0.618019,-0.277124 c 0.02977,-0.02795 0.06517,-0.04051 0.07869,-0.02792 0.01351,0.01259 -0.01084,0.03545 -0.05412,0.05081 -0.06254,0.02219 -0.06758,0.01749 -0.02456,-0.02289 z m -0.546558,-0.536701 c -0.135675,-0.163463 -0.117763,-0.202467 0.02347,-0.05111 0.05246,0.05622 0.07819,0.102222 0.05717,0.102222 -0.02102,0 -0.05731,-0.023 -0.08064,-0.05111 z m 0.462267,-0.01771 c 0.03168,-0.01181 0.06953,-0.01036 0.08411,0.0032 0.01458,0.01359 -0.01134,0.02325 -0.0576,0.02148 -0.05112,-0.002 -0.06152,-0.01165 -0.02651,-0.0247 z m -0.62806,-0.217402 c -0.01492,-0.02249 -0.0062,-0.04089 0.01935,-0.04089 0.02556,0 0.04647,0.0184 0.04647,0.04089 0,0.02249 -0.0087,0.04089 -0.01935,0.04089 -0.01064,0 -0.03155,-0.0184 -0.04647,-0.04089 z m -0.03657,-0.313482 c -0.01609,-0.01499 -0.02606,-0.157593 -0.02216,-0.31689 l 0.0071,-0.28963 0.02791,0.306667 c 0.03039,0.333859 0.03013,0.339901 -0.01285,0.299853 z m 2.559778,-0.111478 c 0,-0.0088 0.03065,-0.02703 0.0681,-0.04042 0.03905,-0.01396 0.05667,-0.0071 0.04129,0.01607 -0.02577,0.03885 -0.109394,0.05747 -0.109394,0.02435 z m -1.799156,-0.372375 c 0,-0.03373 0.02962,-0.06133 0.06582,-0.06133 0.0362,0 0.06582,0.0276 0.06582,0.06133 0,0.03373 -0.02962,0.06133 -0.06582,0.06133 -0.0362,0 -0.06582,-0.0276 -0.06582,-0.06133 z m -0.745993,-0.222476 c 0,-0.04365 0.01689,-0.08909 0.03754,-0.100985 0.02065,-0.01189 0.02822,0.02382 0.01683,0.07937 -0.02475,0.120641 -0.05437,0.132419 -0.05437,0.02162 z m 1.360339,-0.292043 c 0,-0.09965 0.102542,-0.08556 0.123893,0.01702 0.0084,0.04035 -0.01399,0.06817 -0.05485,0.06817 -0.04071,0 -0.06904,-0.03496 -0.06904,-0.08519 z"
       id="path1" /><path
       style="opacity:0.858607;fill:#5a473e;fill-opacity:1;stroke-width:0.125;stroke-linecap:round;stroke-linejoin:round"
       d="m 61.647292,43.224437 c -0.254237,-0.05282 -1.319509,-0.513506 -2.367271,-1.02374 -1.047762,-0.510235 -2.237376,-1.059437 -2.643587,-1.220448 -0.865094,-0.342901 -1.168,-0.699347 -1.276406,-1.502015 -0.125696,-0.930691 0.01615,-1.4091 0.485915,-1.638807 0.583704,-0.285424 4.936409,-2.112025 6.404057,-2.687446 0.6875,-0.269548 2.083587,-0.84041 3.102416,-1.268582 1.018829,-0.428172 1.925852,-0.750315 2.015606,-0.715873 0.08975,0.03444 0.194101,0.221776 0.231882,0.416298 0.03778,0.194522 0.184822,0.673267 0.326759,1.063879 0.535096,1.472601 0.450365,4.080309 -0.177115,5.450907 -0.425836,0.930146 -1.56861,2.017867 -2.710633,2.580048 -0.996054,0.490324 -2.496453,0.731768 -3.391623,0.545779 z M 58.816209,41.00693 C 58.666853,40.727856 58.4375,40.660922 58.4375,40.896407 c 0,0.207673 0.422323,0.649124 0.47366,0.495114 0.0234,-0.07021 -0.01932,-0.24328 -0.09495,-0.384591 z M 58.3125,39.461391 c 0,-0.08998 -0.08259,-0.272797 -0.183525,-0.40625 -0.176702,-0.233622 -0.183672,-0.230638 -0.1875,0.08028 -0.0022,0.177604 0.03353,0.360416 0.07936,0.40625 0.137098,0.137097 0.291667,0.09455 0.291667,-0.08028 z m 0.426376,-1.19978 c 0.191482,-0.199864 0.533854,-0.398228 0.760826,-0.440808 0.393372,-0.0738 0.792315,-0.382953 0.662145,-0.513123 -0.08036,-0.08036 -1.473918,0.548194 -1.755597,0.791847 -0.224598,0.194279 -0.298427,0.525473 -0.117136,0.525473 0.05589,0 0.25828,-0.163525 0.449762,-0.363389 z m 2.898955,-1.503502 c 1.047062,-0.49067 1.350674,-0.735758 0.713267,-0.575779 -0.385412,0.09673 -1.792137,0.775655 -1.969848,0.950701 -0.251965,0.248187 0.24037,0.10129 1.256581,-0.374922 z m 1.856288,-0.778173 c 0.366347,-0.166919 0.420247,-0.356787 0.09963,-0.350961 -0.357709,0.0065 -0.887801,0.496025 -0.537131,0.496025 0.06552,0 0.26239,-0.06528 0.4375,-0.145064 z M 64.507162,35.57272 C 64.793354,35.363452 64.644724,35.136913 64.345195,35.325852 64.111123,35.4735 63.985958,35.75 64.153192,35.75 c 0.06134,0 0.220626,-0.07978 0.35397,-0.17728 z m 1.227687,-0.654159 c 0.182291,-0.182292 0.309551,-0.353328 0.282799,-0.38008 -0.07695,-0.07695 -0.955148,0.473663 -0.955148,0.598866 0,0.220246 0.345862,0.1077 0.672349,-0.218786 z"
       id="path3"
       transform="scale(0.26458333)" /><path
       style="opacity:0.858607;fill:#5a473e;fill-opacity:1;stroke-width:0.125;stroke-linecap:round;stroke-linejoin:round"
       d="m 79.28125,51.746687 c -0.120312,-0.07376 -0.21875,-0.209671 -0.21875,-0.302025 0,-0.09235 -0.07661,-0.197314 -0.170253,-0.233247 -0.248253,-0.09526 -1.9503,-2.993135 -2.164072,-3.684507 -0.244301,-0.790109 -0.163932,-1.926917 0.167719,-2.372338 0.140084,-0.188138 0.614565,-0.549953 1.054402,-0.804033 0.746827,-0.431417 0.870185,-0.462411 1.865641,-0.46875 0.769997,-0.0049 1.145918,-0.06281 1.354019,-0.208568 0.378615,-0.265192 1.654299,-0.189452 1.99449,0.118417 0.129973,0.117624 0.391529,0.499042 0.581235,0.847596 0.293057,0.538442 0.354761,0.826528 0.41036,1.915901 0.04179,0.818859 0.009,1.517317 -0.09068,1.932925 -0.196401,0.81869 -0.974714,1.996808 -1.610042,2.437091 -0.963077,0.667412 -2.694499,1.115553 -3.174073,0.821538 z M 80.0625,49.9375 c 0,-0.201746 -0.114486,-0.231655 -0.427276,-0.111626 C 79.330912,49.942649 79.400882,50.125 79.75,50.125 c 0.194445,0 0.3125,-0.07083 0.3125,-0.1875 z m 0.375,-0.757377 C 80.4375,49.081055 80.387268,49 80.325874,49 c -0.13797,0 -0.272373,0.324334 -0.174826,0.421881 0.109415,0.109415 0.286452,-0.04 0.286452,-0.241758 z m 1.081525,-0.382052 c -0.676621,-0.352046 -0.859456,-0.326002 -0.466941,0.06651 0.160914,0.160915 0.41564,0.258193 0.666666,0.254597 l 0.40625,-0.0058 z m 1.920982,-0.113592 c 0.08697,-0.104786 0.123337,-0.225302 0.08083,-0.267812 -0.09079,-0.09079 -0.458334,0.188794 -0.458334,0.348639 0,0.172181 0.203731,0.128561 0.377507,-0.08083 z"
       id="path4"
       transform="scale(0.26458333)" /><path
       style="opacity:0.858607;fill:#5a473e;fill-opacity:1;stroke-width:0.125;stroke-linecap:round;stroke-linejoin:round"
       d="m 59.2359,66.132111 c -1.366188,-0.215107 -2.688996,-0.790472 -3.285497,-1.429051 -0.221941,-0.237597 -0.264961,-0.362464 -0.165974,-0.481736 0.07349,-0.08855 0.222484,-0.554264 0.331093,-1.034914 0.10861,-0.48065 0.345997,-1.288042 0.527529,-1.794204 0.292082,-0.814409 0.395706,-0.961927 0.900641,-1.282148 0.313822,-0.199019 1.022998,-0.540188 1.575946,-0.758153 0.821862,-0.323966 1.189624,-0.397952 2.014899,-0.405352 0.914247,-0.0082 1.067451,0.02674 1.623086,0.370111 1.642808,1.015231 1.84908,3.645737 0.4333,5.525711 -0.825555,1.096232 -2.244722,1.559024 -3.955023,1.289736 z m 1.378877,-0.707984 c 0.108748,-0.04173 0.197723,-0.129842 0.197723,-0.195803 0,-0.174824 -0.658929,-0.06912 -0.719527,0.115426 -0.0547,0.166585 0.196368,0.205258 0.521804,0.08038 z m -1.01523,-0.18708 c -0.09887,-0.09887 -0.203342,-0.09995 -0.36875,-0.0038 -0.202328,0.117604 -0.185311,0.134621 0.137953,0.137953 0.268916,0.0028 0.331401,-0.03355 0.230797,-0.134153 z M 61.625,65.25 c -0.04249,-0.06875 -0.15499,-0.125 -0.25,-0.125 -0.09501,0 -0.20751,0.05625 -0.25,0.125 -0.04399,0.07117 0.06366,0.125 0.25,0.125 0.186339,0 0.293989,-0.05383 0.25,-0.125 z m -2.6875,-0.111626 c 0,-0.124649 -0.301665,-0.263374 -0.572723,-0.263374 -0.251838,0 -0.220183,0.220457 0.04147,0.288834 0.374557,0.09788 0.53125,0.09037 0.53125,-0.02546 z m -0.936954,-0.264257 c 0.04279,-0.06923 -0.01257,-0.160559 -0.123014,-0.202942 -0.239331,-0.09184 -0.372715,0.0094 -0.257672,0.195509 0.103798,0.167947 0.279364,0.171376 0.380686,0.0074 z M 57.031308,64.34375 C 56.952556,64.107226 56.5625,64.0736 56.5625,64.303335 c 0,0.115954 0.106875,0.196665 0.260417,0.196665 0.152746,0 0.238907,-0.0646 0.208391,-0.15625 z"
       id="path5"
       transform="scale(0.26458333)" /><path
       style="opacity:0.858607;fill:#e0bb68;fill-opacity:0.858824;stroke:#000000;stroke-width:0.03125;stroke-linecap:round;stroke-linejoin:round;stroke-opacity:1"
       d="m 39.859375,86.060241 c -0.894145,-0.09976 -2.202207,-0.399022 -4.171875,-0.954453 -1.482178,-0.417963 -1.874278,-0.582676 -2.069888,-0.86952 -0.164958,-0.241896 -0.180399,-0.337307 -0.177321,-1.095643 0.003,-0.729139 0.06096,-1.304021 0.219117,-2.171875 0.240561,-1.320007 0.66077,-2.585322 0.949595,-2.859375 l 0.0988,-0.09375 0.442971,0.0045 c 0.302121,0.003 0.666216,0.03534 1.145064,0.101562 0.725317,0.100309 1.339755,0.123502 1.868221,0.07052 0.205274,-0.02058 0.226562,-0.01746 0.226562,0.03318 0,0.07329 0.04824,0.0712 0.101188,-0.0044 0.02323,-0.03316 0.08028,-0.06984 0.126772,-0.08151 0.09587,-0.02406 0.114281,-0.07694 0.02678,-0.07694 -0.04937,0 -0.03492,-0.04424 0.09951,-0.304687 0.08649,-0.167578 0.394509,-0.803907 0.684475,-1.414063 0.612852,-1.289585 0.953907,-1.957046 1.18047,-2.310238 0.154194,-0.240375 0.167229,-0.252262 0.276626,-0.252262 0.189996,0 0.526855,0.109281 1.340122,0.434751 1.966989,0.78719 3.827878,1.478706 4.123496,1.532312 0.105456,0.01912 0.702644,0.173169 1.327085,0.342326 0.624441,0.169157 1.388472,0.367558 1.697847,0.440892 0.309375,0.07333 0.567532,0.137599 0.573683,0.142813 0.02475,0.02098 -1.036003,1.843842 -1.598845,2.747531 -0.40247,0.646198 -1.146709,1.769764 -1.39723,2.109375 -0.107768,0.146094 -0.346198,0.420313 -0.529844,0.609375 -0.183646,0.189063 -0.524774,0.561719 -0.758063,0.828125 -0.430932,0.492108 -1.124247,1.190667 -1.492826,1.504117 -0.936689,0.796587 -1.99879,1.366624 -2.875706,1.54341 -0.292428,0.05895 -1.085061,0.08321 -1.436794,0.04396 z"
       id="path19"
       transform="scale(0.26458333)" /></g><path
     style="opacity:0.858607;fill:#e0bb68;fill-opacity:0.858824;stroke:#000000;stroke-width:0.0233861;stroke-linecap:round;stroke-linejoin:round;stroke-opacity:1"
     d="m 11.344219,9.7453868 c -0.06668,-0.044795 -0.08063,-0.069526 -0.08674,-0.1537464 -0.0064,-0.088394 0.0022,-0.1092221 0.07198,-0.1746322 0.04359,-0.040847 0.224705,-0.1506519 0.402474,-0.2440104 0.533485,-0.2801683 0.824131,-0.4616233 1.118012,-0.697993 l 0.0612,-0.049223 -0.04926,-0.2547963 c -0.03895,-0.2014765 -0.04972,-0.3502274 -0.05146,-0.7108254 -0.0021,-0.428204 10e-4,-0.4624496 0.05032,-0.5612659 0.0709,-0.1420738 0.222993,-0.2491719 0.649069,-0.4570362 0.487526,-0.2378438 1.065268,-0.439601 1.61364,-0.5635099 0.26468,-0.059807 0.747688,-0.059669 0.92375,2.633e-4 0.367549,0.1251156 0.689143,0.4021254 1.014593,0.8739336 0.09974,0.144599 0.204009,0.2787769 0.2317,0.2981727 0.07657,0.053633 0.208938,0.043015 0.56691,-0.045477 0.393623,-0.097305 0.657311,-0.1445977 0.922969,-0.1655363 l 0.198781,-0.015666 0.06899,0.072823 c 0.238512,0.2517667 -0.07713,0.4881663 -1.488974,1.1151643 -0.247996,0.1101344 -0.608757,0.2638687 -0.801693,0.3416316 -0.192935,0.077763 -0.362289,0.1504984 -0.376343,0.1616344 -0.08857,0.070185 -1.64547,0.5977943 -2.371521,0.8036727 -0.913374,0.2589956 -1.401325,0.3685204 -1.975153,0.4433411 -0.411076,0.0536 -0.594959,0.049112 -0.693249,-0.016917 z m 2.095443,-0.835289 c 0.04534,-0.090036 0.07636,-0.1637027 0.06894,-0.1637027 -0.01749,0 -0.130808,0.1328621 -0.167505,0.1963854 -0.01562,0.027043 -0.02878,0.067585 -0.02923,0.090094 -0.0017,0.083672 0.04775,0.036168 0.127795,-0.1227767 z m 0.263093,-0.1868323 c 0.0418,-0.025487 0.07601,-0.05702 0.07601,-0.070071 0,-0.013052 0.01904,-0.02373 0.0423,-0.02373 0.05234,0 0.138763,-0.060591 0.117189,-0.082165 -0.03174,-0.03174 -0.156342,0.016518 -0.250293,0.096936 -0.139217,0.1191644 -0.130181,0.1674241 0.0148,0.079029 z M 14.35268,8.4174341 c 0.0085,-0.013719 0.0099,-0.030465 0.0031,-0.037214 -0.01836,-0.018365 -0.109342,0.015206 -0.109342,0.040346 0,0.030114 0.08724,0.027541 0.106199,-0.00313 z m -0.527148,-0.517671 c 0,-0.031582 -0.139144,-0.1823556 -0.16829,-0.1823556 -0.03547,0 -0.01875,0.054116 0.04086,0.1322625 0.05908,0.077458 0.127433,0.1043268 0.127433,0.050093 z m 0.467722,-0.042039 c 0,-0.012861 -0.02569,-0.023387 -0.05708,-0.023387 -0.0314,0 -0.06359,0.010523 -0.07154,0.023387 -0.0084,0.013644 0.01535,0.023386 0.05708,0.023386 0.03935,0 0.07154,-0.010523 0.07154,-0.023386 z M 13.634223,7.6416417 c -0.0041,-0.028809 -0.02589,-0.05589 -0.0484,-0.06018 -0.04691,-0.00894 -0.05476,0.042602 -0.01286,0.084497 0.04355,0.043549 0.06948,0.033258 0.06126,-0.024318 z m -0.07633,-0.5703864 c -0.02387,-0.3875392 -0.05647,-0.435963 -0.05829,-0.086576 -0.0015,0.2899891 0.0082,0.3585506 0.05097,0.3585506 0.01607,0 0.0185,-0.090297 0.0073,-0.271975 z m 2.647316,0.1141188 c 0.01394,-0.042465 -0.07633,-0.036198 -0.11288,0.00783 -0.02702,0.032552 -0.0226,0.036114 0.03626,0.029232 0.03686,-0.00431 0.07134,-0.020989 0.07662,-0.037068 z m -1.783334,-0.342396 c 0,-0.024323 -0.01903,-0.055894 -0.0423,-0.070158 -0.03367,-0.020645 -0.04884,-0.017124 -0.0744,0.017264 -0.04571,0.061503 -0.01846,0.1127911 0.05537,0.1042292 0.04205,-0.00488 0.06132,-0.021013 0.06132,-0.051335 z m -0.82156,-0.207177 c 0.02135,-0.079651 0.01751,-0.1344699 -0.0094,-0.1344699 -0.03222,0 -0.06517,0.092974 -0.05149,0.1452909 0.01504,0.057525 0.04395,0.052388 0.06089,-0.010822 z m 1.441291,-0.2836158 c 0,-0.066139 -0.05537,-0.1187786 -0.104939,-0.099758 -0.03542,0.013592 -0.04913,0.1104289 -0.01979,0.1397691 0.0086,0.00858 0.04015,0.015592 0.07016,0.015592 0.04186,0 0.05457,-0.012943 0.05457,-0.055602 z"
     id="path8" /><path
     style="opacity:0.858607;fill:#e0bb68;fill-opacity:0.858824;stroke:#000000;stroke-width:0.0233861;stroke-linecap:round;stroke-linejoin:round;stroke-opacity:1"
     d="M 6.7991618,16.240691 C 6.371602,16.189369 6.134877,16.106424 5.8027156,15.891549 5.5918734,15.755156 5.1726811,15.413754 5.1726811,15.378432 c 0,-0.01451 -0.047166,-0.08932 -0.1048129,-0.166245 C 4.8641515,14.940359 4.723848,14.488825 4.7228447,14.101808 4.7219186,13.74919 4.8260552,13.360395 4.9323275,13.319615 c 0.020971,-0.008 0.3007045,-0.03005 0.6216287,-0.04889 0.6295485,-0.03696 0.8306647,-0.0615 0.9827699,-0.119942 0.053672,-0.02062 0.1291564,-0.03907 0.1677435,-0.04099 0.038587,-0.0019 0.096468,-0.0207 0.1286235,-0.04172 0.032156,-0.02102 0.1058219,-0.05057 0.1637024,-0.06567 0.1810073,-0.04721 0.5683454,-0.214821 1.3970791,-0.604537 1.4898142,-0.700592 1.6170774,-0.750234 2.8358024,-1.106168 0.270522,-0.07901 0.541514,-0.132473 0.935443,-0.184558 0.326337,-0.04315 0.458032,-0.04915 0.853592,-0.03891 0.508548,0.01317 0.931994,0.06405 1.134225,0.136302 0.07074,0.02527 0.191766,0.06045 0.26894,0.07816 0.188395,0.04325 0.550092,0.18348 0.735657,0.285218 0.08305,0.04553 0.33036,0.156486 0.549573,0.246557 0.488489,0.200713 0.953431,0.420481 1.057494,0.499853 0.09893,0.07546 0.09965,0.135278 0.004,0.329633 -0.100843,0.204843 -0.23878,0.358703 -0.321578,0.358703 -0.03518,0 -0.214652,-0.0427 -0.398827,-0.0949 -0.184175,-0.05219 -0.514935,-0.132251 -0.735023,-0.177907 l -0.400159,-0.08301 -0.561266,0.01317 c -0.563924,0.01323 -0.841875,0.0461 -0.982215,0.116152 -0.03859,0.01926 -0.128039,0.0425 -0.198782,0.05165 -0.07074,0.0091 -0.159926,0.03267 -0.198185,0.05228 -0.03826,0.01961 -0.17106,0.06983 -0.295114,0.111611 -0.540452,0.182006 -2.003335,1.087182 -2.417617,1.495929 -0.03913,0.03861 -0.09947,0.08484 -0.134083,0.102738 -0.03461,0.0179 -0.1871302,0.143091 -0.3389275,0.278212 -0.3839242,0.341746 -0.6848895,0.579442 -0.9939993,0.785038 -0.3833289,0.254961 -0.6185459,0.371177 -1.0008733,0.494513 -0.3982728,0.12848 -0.5644155,0.14397 -0.9927605,0.09255 z M 6.1665897,15.504973 c 0,-0.04286 -0.014073,-0.06046 -0.052723,-0.06595 -0.031625,-0.0045 -0.058362,0.0072 -0.066814,0.02923 -0.023283,0.06068 0.00935,0.110831 0.066814,0.102671 0.038651,-0.0055 0.052723,-0.02309 0.052723,-0.06595 z m 2.6271889,-1.295125 c 0.00459,-0.02418 -0.00584,-0.05296 -0.023186,-0.06395 -0.04945,-0.03134 -0.072954,-0.02419 -0.057016,0.01735 0.00865,0.02253 -0.00225,0.05136 -0.02673,0.07069 -0.037597,0.02969 -0.035011,0.03206 0.028626,0.02626 0.046857,-0.0043 0.072715,-0.02089 0.078306,-0.05035 z M 8.232038,13.452605 c 0.00631,-0.04419 -0.00341,-0.05238 -0.062111,-0.05238 -0.065901,0 -0.068154,0.0031 -0.042552,0.05877 0.03242,0.07049 0.094234,0.06671 0.1046636,-0.0064 z"
     id="path9" /><path
     style="opacity:0.858607;fill:#e0bb68;fill-opacity:0.858824;stroke:#000000;stroke-width:0.0233861;stroke-linecap:round;stroke-linejoin:round;stroke-opacity:1"
     d="m 13.631419,16.952753 c -0.167991,-0.02457 -0.633327,-0.178611 -0.87026,-0.28808 -0.09746,-0.04503 -0.300376,-0.15483 -0.450929,-0.244005 -0.553269,-0.327706 -0.868735,-0.59178 -0.982151,-0.82215 -0.05591,-0.113568 -0.06313,-0.154629 -0.06169,-0.350792 0.0019,-0.258422 0.04997,-0.409448 0.208417,-0.65481 0.291519,-0.451429 0.84005,-0.793043 1.728898,-1.076724 0.382662,-0.122129 0.482677,-0.144808 0.742417,-0.168347 0.395709,-0.03586 1.020256,0.0034 1.387813,0.08732 0.208073,0.04749 0.958977,0.279241 0.99022,0.305614 0.0044,0.0037 0.02881,0.125932 0.05423,0.27159 0.07531,0.431474 0.03558,0.749372 -0.104603,0.836918 -0.02722,0.017 -0.166289,0.03885 -0.309992,0.04872 -0.21101,0.01448 -0.31408,0.03576 -0.541411,0.111766 -0.154431,0.05163 -0.36619,0.13682 -0.470574,0.189304 -0.104385,0.05248 -0.219204,0.09543 -0.255153,0.09543 -0.146955,0 -0.709138,-0.403261 -1.137076,-0.815638 -0.162177,-0.15628 -0.314458,-0.283244 -0.350608,-0.292317 -0.147194,-0.03694 -0.284496,0.107401 -0.282571,0.297065 0.0032,0.311998 0.366032,0.718957 1.004373,1.126416 0.298075,0.190265 0.339098,0.232892 0.339098,0.352354 0,0.112884 -0.09787,0.516857 -0.15104,0.623439 -0.01983,0.03974 -0.03605,0.101719 -0.03605,0.137724 0,0.09657 -0.04734,0.183688 -0.120322,0.22143 -0.07046,0.03643 -0.126187,0.03774 -0.331038,0.0078 z m -1.092122,-1.016299 c 0,-0.0289 -0.06959,-0.144648 -0.10426,-0.173423 -0.06702,-0.05562 -0.06773,-0.0036 -0.0013,0.09231 0.05722,0.08257 0.105531,0.1197 0.10553,0.08111 z M 12.31536,14.085395 c 0.03222,-0.03475 0.05353,-0.06825 0.04734,-0.07444 -0.01502,-0.01503 -0.133684,0.07457 -0.145432,0.109815 -0.0164,0.04921 0.03778,0.02967 0.0981,-0.03538 z"
     id="path10" /><path
     style="opacity:0.858607;fill:#e0bb68;fill-opacity:0.858824;stroke:#000000;stroke-width:0.0233861;stroke-linecap:round;stroke-linejoin:round;stroke-opacity:1"
     d="m 18.04672,15.425211 c -0.291732,-0.06643 -0.937432,-0.251645 -0.984822,-0.282492 -0.02716,-0.01768 -0.0561,-0.06574 -0.06431,-0.106807 -0.02406,-0.120317 -0.0172,-0.45229 0.01299,-0.628346 0.02421,-0.141204 0.02133,-0.208823 -0.02173,-0.509081 l -0.04965,-0.34625 0.09272,-0.110415 c 0.124247,-0.147967 0.324919,-0.440913 0.324919,-0.474324 0,-0.01476 0.02517,-0.05048 0.05592,-0.07937 l 0.05592,-0.05253 0.125324,0.06272 c 0.06893,0.0345 0.257578,0.135229 0.419222,0.223852 0.161644,0.08862 0.307048,0.161134 0.323119,0.161134 0.01607,0 0.06371,0.02631 0.105872,0.05847 0.04216,0.03215 0.101967,0.05841 0.132909,0.05835 0.07184,-1.46e-4 0.283504,-0.109305 0.652603,-0.336563 l 0.292326,-0.179988 0.07684,0.08779 c 0.04226,0.04829 0.156862,0.219787 0.254672,0.38111 0.203335,0.335372 0.355875,0.558883 0.46711,0.684441 0.09711,0.109616 0.115556,0.180834 0.06976,0.269386 -0.05654,0.109343 -0.173965,0.19934 -0.809918,0.620755 -0.80328,0.532295 -0.765928,0.514703 -1.110838,0.5232 -0.177799,0.0044 -0.332051,-0.0048 -0.42095,-0.02504 z m 1.787464,-1.075955 c 0.04254,-0.05126 0.01766,-0.07062 -0.04657,-0.03624 -0.06909,0.03697 -0.255876,0.209967 -0.255876,0.236977 0,0.025 0.256249,-0.145072 0.302448,-0.200738 z"
     id="path11" /><path
     style="opacity:0.858607;fill:#e0bb68;fill-opacity:0.858824;stroke:#000000;stroke-width:0.0233861;stroke-linecap:round;stroke-linejoin:round;stroke-opacity:1"
     d="m 17.407287,21.221576 c -0.03013,-0.02171 -0.160611,-0.182889 -0.289958,-0.358184 -0.129347,-0.175295 -0.359154,-0.467423 -0.510683,-0.649173 l -0.275506,-0.330456 0.0706,-0.06711 c 0.09242,-0.08785 0.133277,-0.169277 0.161476,-0.321815 0.03372,-0.182408 0.0025,-0.243673 -0.206365,-0.405435 l -0.07623,-0.05903 -0.209008,0.106828 c -0.402293,0.205622 -1.151158,0.415194 -1.602961,0.448594 -0.583413,0.04313 -1.673835,-0.140271 -2.410249,-0.405384 -0.632279,-0.227625 -1.727107,-0.759906 -1.900556,-0.924009 -0.14044,-0.132872 -0.140188,-0.13466 0.04906,-0.348212 0.417249,-0.470827 0.912318,-1.083707 1.020995,-1.263959 l 0.05336,-0.08851 0.09698,0.0561 c 0.246019,0.142304 0.844014,0.466737 0.914822,0.496323 0.04335,0.01811 0.124372,0.06337 0.180059,0.100576 0.165625,0.110661 0.698029,0.307626 1.048384,0.387857 0.0836,0.01915 0.278294,0.04633 0.432642,0.06042 0.330144,0.03013 0.390455,0.04632 0.80682,0.216593 0.466769,0.190888 0.881377,0.297398 1.157676,0.297398 0.148138,0 0.540636,-0.106222 0.712284,-0.192765 0.129845,-0.06547 0.174225,-0.07591 0.315712,-0.07426 0.326273,0.0038 0.811378,0.138258 1.22567,0.339749 0.422416,0.205441 0.708765,0.540644 0.919527,1.07641 0.105616,0.268479 0.244466,0.741209 0.266504,0.907339 0.01517,0.114353 0.01262,0.121843 -0.06723,0.197147 -0.141959,0.133885 -1.550869,0.801522 -1.742098,0.825525 -0.05865,0.0074 -0.104784,-0.0019 -0.141733,-0.02855 z m -0.523908,-1.840359 c -0.01115,-0.03385 -0.1112,-0.0546 -0.1112,-0.02306 0,0.0334 0.02747,0.0523 0.076,0.0523 0.0254,0 0.04065,-0.01266 0.0352,-0.02923 z m -4.121091,-0.873822 c 0.0317,-0.02077 0.05764,-0.04708 0.05764,-0.05846 0,-0.04021 -0.0627,-0.01996 -0.11693,0.03777 -0.06195,0.06594 -0.02791,0.07783 0.05929,0.0207 z"
     id="path12" /><path
     style="opacity:0.858607;fill:#e0bb68;fill-opacity:0.858824;stroke:#000000;stroke-width:0.0233861;stroke-linecap:round;stroke-linejoin:round;stroke-opacity:1"
     d="m 10.000706,16.719929 c -0.237542,-0.0914 -0.7939256,-0.384865 -0.7939256,-0.418754 0,-0.0187 0.1157611,-0.123199 0.257247,-0.232215 0.1414857,-0.109015 0.4519361,-0.363478 0.6898896,-0.565473 l 0.432642,-0.367263 0.01653,0.223453 c 0.0091,0.122899 0.03853,0.320029 0.06542,0.438066 0.04368,0.191718 0.04545,0.224613 0.0166,0.308347 -0.0965,0.280094 -0.391661,0.663018 -0.509129,0.660513 -0.03143,-6.61e-4 -0.110301,-0.02167 -0.175274,-0.04667 z"
     id="path13" /><path
     style="opacity:0.858607;fill:#e0bb68;fill-opacity:0.858824;stroke:#000000;stroke-width:0.0233861;stroke-linecap:round;stroke-linejoin:round;stroke-opacity:1"
     d="m 6.0730452,23.202051 c -0.077174,-0.03689 -0.1666256,-0.09567 -0.1987815,-0.130621 -0.051714,-0.05622 -0.058156,-0.0829 -0.055785,-0.231089 0.00651,-0.407057 0.5155131,-2.020992 0.750544,-2.379821 0.085092,-0.129912 0.1365033,-0.147303 0.3868502,-0.130858 0.2359009,0.0155 1.1669152,0.145084 1.3097441,0.182304 0.087472,0.02279 0.087765,0.02328 0.073066,0.121342 -0.00812,0.05415 -0.045644,0.219478 -0.083392,0.367395 -0.040785,0.159817 -0.082778,0.416018 -0.1034944,0.631424 -0.020243,0.210485 -0.048301,0.383031 -0.066912,0.411483 -0.029516,0.04512 -0.043726,0.0474 -0.1797478,0.0288 C 7.8239028,22.0613 7.7204716,22.04194 7.6752895,22.02939 7.4553319,21.96828 7.3967349,21.99992 7.2200173,22.275247 c -0.1405766,0.219015 -0.475788,0.667554 -0.5825934,0.779556 -0.1048573,0.109958 -0.2854135,0.214363 -0.3706662,0.214334 -0.029368,-10e-6 -0.1165386,-0.0302 -0.1937128,-0.06708 z"
     id="path14" /><path
     style="opacity:0.858607;fill:#e0bb68;fill-opacity:0.858824;stroke:#000000;stroke-width:0.0233861;stroke-linecap:round;stroke-linejoin:round;stroke-opacity:1"
     d="M 18.923698,23.992229 C 18.712391,23.896579 18.636885,23.78088 18.44418,23.25746 18.38262,23.09025 18.275899,22.824177 18.207025,22.666189 18.138155,22.5082 18.081799,22.368775 18.081799,22.356355 c 0,-0.01242 -0.04275,-0.117515 -0.09499,-0.233545 -0.10965,-0.243517 -0.115321,-0.343952 -0.02194,-0.388476 0.03216,-0.01533 0.153179,-0.06161 0.26894,-0.102852 0.115761,-0.04124 0.40814,-0.16905 0.649731,-0.284028 0.401228,-0.190952 0.601917,-0.276593 0.648165,-0.276593 0.02316,0 0.148164,0.261389 0.324342,0.678197 0.17193,0.406755 0.217308,0.484795 0.300229,0.516322 0.07469,0.0284 0.121627,0.02154 0.673388,-0.09838 0.239008,-0.05194 0.522029,-0.09755 0.654811,-0.105526 l 0.23386,-0.01404 0.120906,0.116637 c 0.214057,0.2065 0.217597,0.366661 0.01116,0.505199 -0.458255,0.307541 -2.272608,1.230412 -2.624311,1.334856 -0.156838,0.04658 -0.174775,0.04587 -0.302397,-0.0119 z"
     id="path15" /><path
     style="opacity:0.858607;fill:#e0bb68;fill-opacity:0.858824;stroke:#000000;stroke-width:0.0233861;stroke-linecap:round;stroke-linejoin:round;stroke-opacity:1"
     d="m 21.386925,20.009057 c -0.08597,-0.03887 -0.1137,-0.0831 -0.133406,-0.212737 -0.02416,-0.158937 -0.05915,-0.996787 -0.09668,-2.315223 -0.01977,-0.694566 -0.05164,-1.672562 -0.07081,-2.173324 -0.02805,-0.732706 -0.02908,-0.914061 -0.0053,-0.92884 0.08278,-0.05143 0.342713,-0.08002 0.479249,-0.05272 l 0.06967,0.01393 0.01508,0.40117 c 0.01458,0.387968 0.03515,1.087356 0.08537,2.903481 0.01316,0.475907 0.03532,1.142827 0.04923,1.482046 0.02871,0.699954 0.02104,0.804959 -0.06284,0.859916 -0.07916,0.05187 -0.240095,0.06275 -0.329574,0.02229 z"
     id="path16" /><path
     style="opacity:0.858607;fill:#97b34e;fill-opacity:0.858824;stroke:#000000;stroke-width:0.0233861;stroke-linecap:round;stroke-linejoin:round;stroke-opacity:1"
     d="m 20.999166,10.940876 c -0.06148,-0.02245 -0.06834,-0.03589 -0.100086,-0.196153 -0.01998,-0.100855 -0.154387,-3.9142192 -0.144617,-4.1030754 0.01115,-0.2155023 0.1033,-0.5258347 0.231846,-0.7807682 0.111959,-0.2220391 0.436151,-0.4977217 0.690559,-0.5872294 0.06139,-0.021601 0.144859,-0.053502 0.185478,-0.070894 0.1837,-0.078656 0.7219,-0.058278 0.976478,0.036971 0.202441,0.075743 0.467381,0.2646151 0.5985,0.4266634 0.22291,0.2754911 0.294187,0.5657652 0.273932,1.1155738 -0.02228,0.6047751 -0.179945,1.1183948 -0.384443,1.252387 -0.07396,0.048457 -0.283802,0.048881 -0.376857,7.672e-4 -0.03708,-0.019177 -0.08071,-0.066938 -0.09694,-0.1061376 -0.03323,-0.080219 -0.02496,-0.1210368 0.09017,-0.4454271 0.100909,-0.2843175 0.171289,-0.6526238 0.174285,-0.9120573 0.0023,-0.1964854 -0.0049,-0.2383883 -0.0622,-0.3624842 -0.08321,-0.1802773 -0.22073,-0.319809 -0.390128,-0.3958304 -0.25804,-0.1158015 -0.527546,-0.1037392 -0.804911,0.036026 -0.249653,0.1258009 -0.349588,0.2577637 -0.440728,0.5819722 -0.06437,0.2289876 -0.06765,0.3549057 -0.02963,1.1365214 0.0685,1.4080635 0.128306,3.2606386 0.107067,3.3165026 -0.01326,0.03487 -0.04695,0.0592 -0.09541,0.06889 -0.108566,0.02171 -0.327676,0.01506 -0.402363,-0.01222 z"
     id="path17" /><path
     style="opacity:0.858607;fill:#97b34e;fill-opacity:0.858824;stroke:#000000;stroke-width:0.0233861;stroke-linecap:round;stroke-linejoin:round;stroke-opacity:1"
     d="m 12.542029,27.313069 c -0.942692,-0.03958 -1.224655,-0.105842 -1.224655,-0.287806 0,-0.03155 0.04945,-0.153829 0.109892,-0.271722 0.06044,-0.117896 0.104716,-0.227843 0.09839,-0.24433 -0.01856,-0.04835 -0.10214,-0.05661 -0.950789,-0.09391 -0.8531749,-0.0375 -1.1733176,-0.06313 -1.496709,-0.119822 -0.5791095,-0.101512 -0.8532149,-0.301187 -0.7664948,-0.55836 0.047423,-0.140636 0.3140811,-0.284025 0.801574,-0.43103 0.2573404,-0.0776 0.5368314,-0.09662 1.6019468,-0.108995 0.546649,-0.0064 1.101777,-0.01754 1.233616,-0.02486 0.289244,-0.01606 0.280713,0.0085 0.144798,-0.416653 -0.05276,-0.165044 -0.09171,-0.329929 -0.0877,-0.37131 0.0072,-0.07417 0.0077,-0.07446 0.154612,-0.08143 0.266094,-0.01263 0.41913,0.09709 0.874176,0.626725 0.111806,0.130134 0.171927,0.180739 0.232972,0.196098 0.134638,0.03388 0.200627,-0.01551 0.310486,-0.232348 0.177951,-0.351246 0.354888,-0.548402 0.492162,-0.548402 0.105693,0 0.282264,0.176063 0.505561,0.504108 0.208633,0.306502 0.276532,0.347734 0.549894,0.33393 l 0.171766,-0.0087 0.322222,-0.31664 c 0.492801,-0.484264 0.776134,-0.699812 0.919884,-0.699812 0.09694,0 0.185772,0.08273 0.185772,0.172996 0,0.09705 -0.09349,0.372415 -0.198788,0.585527 -0.0928,0.187811 -0.09739,0.212723 -0.04304,0.23358 0.02134,0.0082 0.603306,0.02488 1.293247,0.03708 1.062053,0.01879 1.304448,0.02954 1.58052,0.07011 0.511306,0.07514 1.116669,0.30529 1.349994,0.513252 0.149408,0.133166 0.166242,0.168526 0.126039,0.264745 -0.04969,0.118922 -0.162426,0.1976 -0.373461,0.260636 -0.485338,0.144971 -1.068291,0.220502 -2.179339,0.282369 -0.853505,0.04753 -0.914297,0.06436 -0.843597,0.233569 0.04668,0.11171 0.04691,0.221139 6.08e-4,0.287242 -0.07197,0.102749 -0.504146,0.17326 -1.320223,0.215406 -0.518718,0.02679 -2.927488,0.02593 -3.575339,-0.0013 z"
     id="path18" /><path
     style="opacity:0.858607;fill:#e0bb68;fill-opacity:0.858824;stroke:#000000;stroke-width:0.0233861;stroke-linecap:round;stroke-linejoin:round;stroke-opacity:1"
     d="M 21.034241,10.928176 C 20.924784,10.9071 20.920426,10.874049 20.876063,9.7286107 20.784302,7.3593331 20.76887,6.6577314 20.804508,6.4754274 20.906382,5.9542956 21.153281,5.575907 21.518441,5.3812788 c 0.294232,-0.1568239 0.434295,-0.195216 0.714388,-0.1958184 0.321165,-6.88e-4 0.492662,0.031687 0.701582,0.1324591 0.314695,0.1517907 0.561736,0.4059613 0.666358,0.6855883 0.155591,0.4158568 0.0951,1.3284108 -0.117611,1.7740974 -0.096,0.2011516 -0.178852,0.2673054 -0.33422,0.2668627 -0.147265,-4.233e-4 -0.227586,-0.037952 -0.269848,-0.1260943 -0.02919,-0.060882 -0.02352,-0.092647 0.06599,-0.369693 0.128498,-0.3977302 0.188172,-0.7139199 0.187889,-0.9955599 -1.92e-4,-0.190909 -0.0093,-0.2465827 -0.05679,-0.3486661 -0.195771,-0.420479 -0.650369,-0.5928158 -1.112287,-0.4216648 -0.168242,0.062337 -0.27719,0.1322369 -0.368883,0.2366695 -0.09978,0.1136467 -0.135026,0.1862503 -0.195957,0.4036883 -0.06261,0.2234165 -0.064,0.4662236 -0.0097,1.6918233 0.05142,1.1606768 0.08338,2.1086501 0.08341,2.4736571 l 2.5e-5,0.310445 -0.05999,0.02281 c -0.05912,0.02248 -0.275799,0.02608 -0.378553,0.0063 z"
     id="path20" /></svg>
