<?xml version="1.0" encoding="UTF-8"?>
<svg version="1.1" xmlns="http://www.w3.org/2000/svg" width="567" height="234">
<path d="M0 0 C13.27015689 6.99660515 22.71002332 17.70282859 27.875 31.75 C28.1946875 32.59304687 28.514375 33.43609375 28.84375 34.3046875 C33.22742116 48.30808149 32.91954136 66.31768586 26.875 79.75 C26.31425781 81.00296875 26.31425781 81.00296875 25.7421875 82.28125 C21.35492288 90.99766977 14.77725714 96.81560122 5.875 100.75 C5.215 100.75 4.555 100.75 3.875 100.75 C3.875 101.41 3.875 102.07 3.875 102.75 C5.1125 102.811875 6.35 102.87375 7.625 102.9375 C17.26164064 104.04533428 26.58240077 108.25741673 32.875 115.75 C40.01323115 126.51340613 41.42146969 138.9436367 41.3125 151.5625 C41.30492676 152.79282959 41.29735352 154.02315918 41.28955078 155.29077148 C41.02084765 170.12730305 37.94092216 184.18139715 27.75 195.5625 C17.25107866 205.20389354 4.05205002 207.13707983 -9.625 207.0625 C-10.6658374 207.05903564 -11.7066748 207.05557129 -12.77905273 207.05200195 C-41.21746137 206.65753863 -41.21746137 206.65753863 -48.125 199.75 C-48.16580783 197.75041636 -48.16754356 195.74954746 -48.125 193.75 C-45.26056338 192.1309706 -43.16878488 191.49748175 -39.88671875 191.44140625 C-39.07388428 191.41860596 -38.2610498 191.39580566 -37.42358398 191.37231445 C-36.56192627 191.35257568 -35.70026855 191.33283691 -34.8125 191.3125 C-19.98790338 190.73721715 -5.00952026 189.32537004 5.8125 178 C9.26141392 173.69919607 11.22210584 168.97527831 12.875 163.75 C13.06707031 163.14542969 13.25914063 162.54085937 13.45703125 161.91796875 C15.88951214 149.30089499 13.70800853 136.06107583 6.5625 125.375 C5.35863218 123.81349781 4.13087616 122.26998746 2.875 120.75 C2.39804688 120.12609375 1.92109375 119.5021875 1.4296875 118.859375 C-9.65712252 105.97313508 -28.82068389 102.82940422 -44.77099609 101.57080078 C-49.78369268 101.12261988 -53.59093806 99.95123324 -58.125 97.75 C-57.795 96.43 -57.465 95.11 -57.125 93.75 C-53.91470614 92.8031264 -50.99301697 92.61333539 -47.65234375 92.57421875 C-46.58693359 92.55037109 -45.52152344 92.52652344 -44.42382812 92.50195312 C-42.21047274 92.45951226 -39.99687703 92.42797984 -37.78320312 92.40820312 C-26.98925677 92.12977499 -16.98890942 89.51394447 -9.125 81.75 C0.75303315 70.05019845 5.11950205 55.95625946 3.875 40.75 C2.14678335 30.62373059 -1.86813612 22.87294629 -9.8515625 16.34375 C-20.27627797 9.03570204 -33.13029521 6.9307232 -45.3828125 4.49609375 C-46.4653833 4.27888672 -47.5479541 4.06167969 -48.66333008 3.83789062 C-50.81973275 3.40953653 -52.97843325 2.99256808 -55.1394043 2.58789062 C-56.13109619 2.39259766 -57.12278809 2.19730469 -58.14453125 1.99609375 C-59.03245361 1.82779053 -59.92037598 1.6594873 -60.83520508 1.48608398 C-63.40126278 0.66119178 -64.52742678 -0.09228518 -66.125 -2.25 C-66.3125 -5.4375 -66.3125 -5.4375 -66.125 -8.25 C-46.752763 -14.70741233 -18.09289289 -8.33335716 0 0 Z " fill="#F8B12C" transform="translate(94.125,9.25)"/>
<path d="M0 0 C0.65126169 1.82211471 0.65126169 1.82211471 1.09226036 4.06353378 C1.25208106 4.87553096 1.41190176 5.68752814 1.5765655 6.5241313 C2.20436029 10.19491742 2.69577472 13.86536684 3.11367798 17.56549072 C3.20930853 18.37819608 3.30493909 19.19090145 3.40346754 20.02823424 C3.71956475 22.72437796 4.02898457 25.4212436 4.33837891 28.11816406 C4.56487646 30.06213923 4.79178032 32.00606709 5.01905823 33.94995117 C5.63275352 39.20942076 6.24057064 44.4695543 6.847157 49.72984791 C7.48338908 55.2398281 8.12452477 60.74923791 8.76498413 66.25872803 C9.83908652 75.5051187 10.90947712 84.75193319 11.97753906 93.99902344 C13.21248609 104.69067185 14.45277591 115.38168987 15.69603598 126.07237458 C16.89264665 136.36260881 18.08600173 146.65321786 19.27769089 156.94402313 C19.78469472 161.32201051 20.29274778 165.69987426 20.8016243 170.07764435 C21.40019736 175.22866286 21.99589175 180.38000639 22.58935356 185.53161621 C22.80766831 187.42278101 23.02695585 189.3138338 23.24728203 191.20476532 C23.54760282 193.78369369 23.84439879 196.36300397 24.14028931 198.94244385 C24.27248066 200.06700056 24.27248066 200.06700056 24.40734255 201.2142756 C25.25274183 208.65305952 25.25274183 208.65305952 25 212 C22.9219202 214.20314942 21.55000805 214.91009484 18.5625 215.3984375 C17.2940625 215.38683594 17.2940625 215.38683594 16 215.375 C15.154375 215.38273438 14.30875 215.39046875 13.4375 215.3984375 C10.35646591 214.89480693 9.21364977 214.21713724 7 212 C6.32183625 209.44568993 5.9061362 207.20006091 5.60784912 204.59814453 C5.50642617 203.83815722 5.40500321 203.0781699 5.30050683 202.29515266 C4.96431896 199.7429255 4.6536737 197.18823402 4.34277344 194.6328125 C4.10725418 192.80455196 3.87017606 190.97649166 3.63165283 189.14862061 C2.98779725 184.17962447 2.3659936 179.20808703 1.74812603 174.2358017 C1.09863913 169.03858089 0.42936737 163.84390978 -0.23773193 158.64892578 C-1.35530083 149.92429313 -2.46004772 141.19811863 -3.55566406 132.47070312 C-5.10184405 120.15428622 -6.67022047 107.84077355 -8.24347734 95.52779007 C-10.34838281 79.0452127 -12.44662971 62.56174596 -14.51953888 46.07511139 C-14.74466793 44.28635066 -14.97041759 42.49766791 -15.19682312 40.7090683 C-15.50493949 38.27355248 -15.81070484 35.83775337 -16.11578369 33.40185547 C-16.20643797 32.68892397 -16.29709225 31.97599247 -16.39049363 31.24145699 C-16.73555772 28.46836807 -17 25.79822237 -17 23 C-17.99 23 -18.98 23 -20 23 C-20.2139743 23.99809692 -20.42794861 24.99619385 -20.64840698 26.02453613 C-23.62550211 39.74512026 -27.02053925 53.3541507 -30.4453125 66.96875 C-31.0625853 69.42687634 -31.67984375 71.88500629 -32.29708862 74.34313965 C-33.58108543 79.453361 -34.86731966 84.563015 -36.15478516 89.67236328 C-37.6421486 95.57541342 -39.1222312 101.48025894 -40.59923947 107.38590765 C-42.02838247 113.09845054 -43.46521318 118.80904169 -44.90490341 124.51893616 C-45.5140549 126.93935688 -46.12086802 129.36036733 -46.72531509 131.78196716 C-47.5656616 135.14605838 -48.41474818 138.50782377 -49.26611328 141.86914062 C-49.51445923 142.87160324 -49.76280518 143.87406586 -50.01867676 144.90690613 C-50.25124176 145.81761368 -50.48380676 146.72832123 -50.72341919 147.66662598 C-50.92286196 148.45995583 -51.12230473 149.25328568 -51.32779121 150.07065582 C-52 152 -52 152 -54 154 C-58.66989808 153.73314868 -62.09833692 151.37159913 -66 149 C-65.48635646 142.17799302 -64.40150436 135.74226763 -62.71850586 129.11694336 C-62.48737091 128.18338013 -62.25623596 127.24981689 -62.01809692 126.28796387 C-61.25688773 123.22025383 -60.48588558 120.15509578 -59.71484375 117.08984375 C-59.17429359 114.91890577 -58.63439421 112.74780566 -58.09510803 110.57655334 C-56.67236164 104.85520733 -55.24145007 99.13593553 -53.80859375 93.41711426 C-52.10078482 86.59521215 -50.40180426 79.77110757 -48.70246315 72.94709206 C-47.32891217 67.43198018 -45.95307801 61.91746556 -44.57138062 56.40438843 C-42.16899234 46.80684263 -39.79100418 37.20683417 -37.54736328 27.57080078 C-37.18186943 26.01289909 -36.81635608 24.45500198 -36.45082092 22.89710999 C-35.7978749 20.11076846 -35.16219903 17.32130537 -34.53733826 14.52854919 C-34.11582237 12.72306358 -34.11582237 12.72306358 -33.68579102 10.88110352 C-33.45392593 9.85533707 -33.22206085 8.82957062 -32.98316956 7.77272034 C-31.83845617 4.54441647 -30.32775363 2.4959892 -28 0 C-25.77734375 -0.76953125 -25.77734375 -0.76953125 -23 -1 C-22.37496582 -1.0623584 -21.74993164 -1.1247168 -21.10595703 -1.18896484 C-18.92614554 -1.39403422 -16.74725302 -1.5451399 -14.5625 -1.6875 C-13.82451172 -1.74744141 -13.08652344 -1.80738281 -12.32617188 -1.86914062 C-7.85563565 -2.15922875 -3.93480906 -2.4036164 0 0 Z " fill="#F8B12C" transform="translate(489,19)"/>
<path d="M0 0 C0.7437085 0.05454346 1.48741699 0.10908691 2.25366211 0.1652832 C23.57952992 2.02077954 47.04326272 9.16836033 61.25 25.9375 C70.96566639 38.3288713 72.45247216 54.57487855 70.6875 69.75 C68.78517213 79.76225197 64.50378614 87.56986085 56.88671875 94.31640625 C50.52557827 98.22732966 43.88552506 99.50099726 36.5 99.4375 C35.28171509 99.42783203 35.28171509 99.42783203 34.03881836 99.41796875 C19.26347838 98.9893302 -5.92388529 94.76361471 -16.75 83.9375 C-17.125 81.5 -17.125 81.5 -16.75 78.9375 C-15.25 77.0625 -15.25 77.0625 -12.75 75.9375 C-7.64244239 76.03036468 -3.49957278 77.34474155 1.3125 79 C10.06152749 81.77408189 19.68669402 82.78593848 28.375 79.25 C31.95662689 77.34159092 34.60370536 75.03744515 37.25 71.9375 C37.95125 71.195 38.6525 70.4525 39.375 69.6875 C44.92530485 61.54705289 45.16731194 52.55860893 44.25 42.9375 C42.29034546 34.70695092 35.29378431 29.55102537 28.5 25.16015625 C19.32259952 20.10111423 9.47121357 17.43618649 -0.59521484 14.68945312 C-1.73297363 14.37427734 -2.87073242 14.05910156 -4.04296875 13.734375 C-5.0693042 13.45948242 -6.09563965 13.18458984 -7.15307617 12.90136719 C-9.80415611 11.91739957 -11.07213969 11.18766726 -12.75 8.9375 C-13.25 5.9375 -13.25 5.9375 -12.75 2.9375 C-8.69889362 -0.41007454 -5.01260384 -0.4118296 0 0 Z " fill="#F8B12C" transform="translate(270.75,58.0625)"/>
<path d="M0 0 C1.2375 -0.02578125 2.475 -0.0515625 3.75 -0.078125 C7 0.25 7 0.25 8.68041992 1.52416992 C10.9736422 4.52339069 10.38757657 8.19380924 10.3125 11.8125 C10.31572266 12.59302734 10.31894531 13.37355469 10.32226562 14.17773438 C10.26716981 19.98283019 10.26716981 19.98283019 8 22.25 C6.07983398 22.41357422 6.07983398 22.41357422 3.74609375 22.3046875 C2.89080078 22.28019531 2.03550781 22.25570312 1.15429688 22.23046875 C-0.62992327 22.16120355 -2.41383471 22.08334834 -4.19726562 21.99609375 C-11.86490214 21.80168686 -17.24896117 23.89469655 -23.6875 27.9375 C-33.24015824 37.49015824 -35.36826126 48.4366366 -35.38975525 61.60887146 C-35.3849883 62.64343381 -35.3849883 62.64343381 -35.38012505 63.69889641 C-35.37088348 65.88968923 -35.38137918 68.07965005 -35.39674377 70.270401 C-35.43651867 76.48925826 -35.43803405 82.70803842 -35.43579102 88.92700195 C-35.43573994 92.75240378 -35.45487391 96.57734482 -35.48512459 100.40262032 C-35.49592721 102.55663647 -35.48384409 104.70976699 -35.47129822 106.86375427 C-35.48133377 108.16933792 -35.49136932 109.47492157 -35.50170898 110.82006836 C-35.50154282 111.96825546 -35.50137665 113.11644257 -35.50120544 114.29942322 C-36.10887282 117.89402791 -37.16165847 119.03599735 -40 121.25 C-42.62109375 122.296875 -42.62109375 122.296875 -45.4375 123 C-46.36433594 123.24234375 -47.29117188 123.4846875 -48.24609375 123.734375 C-50.92085615 124.23518158 -53.28702186 124.42225258 -56 124.25 C-59.28560029 120.96439971 -58.20081679 112.7873713 -58.29711914 108.28051758 C-58.31677231 107.51492523 -58.33642548 106.74933289 -58.35667419 105.96054077 C-58.42029271 103.43862001 -58.47788962 100.91660365 -58.53515625 98.39453125 C-58.57830218 96.61072659 -58.62171858 94.82692846 -58.66539001 93.0431366 C-58.75622489 89.29500992 -58.84414242 85.54682945 -58.92993164 81.79858398 C-59.03805158 77.08218984 -59.15273958 72.3659847 -59.26949501 67.64979744 C-59.7819198 46.84618547 -60.16373499 26.06080105 -60 5.25 C-57.29572635 5.23454701 -54.59145265 5.2191466 -51.88717651 5.20413208 C-49.79464175 5.19181095 -47.70212339 5.17663084 -45.60961914 5.15991211 C-44.71879639 5.15741455 -43.82797363 5.15491699 -42.91015625 5.15234375 C-41.53549194 5.14448853 -41.53549194 5.14448853 -40.13305664 5.13647461 C-38 5.25 -38 5.25 -37 6.25 C-36.90120435 8.060285 -36.87028486 9.87452727 -36.875 11.6875 C-36.87113281 13.17056641 -36.87113281 13.17056641 -36.8671875 14.68359375 C-37 17.25 -37 17.25 -38 19.25 C-36.98421875 18.45335938 -35.9684375 17.65671875 -34.921875 16.8359375 C-13.37354621 0.16716933 -13.37354621 0.16716933 0 0 Z " fill="#F8B12C" transform="translate(207,48.75)"/>
<path d="M0 0 C0.74362793 0.01015137 1.48725586 0.02030273 2.25341797 0.03076172 C17.31680839 0.44376435 34.42158155 4.38901723 46.19140625 14.37890625 C55.69545738 24.51788355 55.59605942 34.91511073 55.203125 48.02929688 C54.68557308 56.66235041 51.21772568 63.53454481 45 69.5 C34.73206787 77.93121151 20.68095714 78.02633553 8.0625 77.375 C2.61703807 76.7586525 -2.06199356 75.89209217 -6.9375 73.375 C-7.08034831 53.01362166 -6.72567566 32.72083233 -5.9375 12.375 C-7.10152344 12.18357422 -7.10152344 12.18357422 -8.2890625 11.98828125 C-11.62104457 11.21671608 -12.91112544 10.1028119 -14.9375 7.375 C-15.0625 5.3125 -15.0625 5.3125 -13.9375 3.375 C-9.31351055 0.50517954 -5.33369892 -0.10645373 0 0 Z M17.41455078 25.62084961 C15.87584536 27.61716568 15.22067998 29.28144254 14.4921875 31.69140625 C14.23566406 32.53896484 13.97914063 33.38652344 13.71484375 34.25976562 C13.33005859 35.58524414 13.33005859 35.58524414 12.9375 36.9375 C12.54111328 38.22237305 12.54111328 38.22237305 12.13671875 39.53320312 C10.40116651 45.38738823 9.12651591 51.24118259 9.0625 57.375 C11.33222309 59.64472309 16.06445742 58.68537299 19.12451172 58.69189453 C25.65999293 58.56612262 30.69624445 57.33398019 35.64453125 52.984375 C40.05585866 48.15352654 41.57078739 42.73183155 41.375 36.33203125 C40.82950005 32.91583784 39.31883074 30.92821637 37.0625 28.375 C32.01195365 25.32362825 22.84093758 21.51850119 17.41455078 25.62084961 Z " fill="#F8B12C" transform="translate(361.9375,67.625)"/>
<path d="M0 0 C5.52539062 0.00528448 10.81267804 0.483208 16.26617432 1.34712219 C17.08503113 1.47318344 17.90388794 1.59924469 18.74755859 1.72912598 C20.46232243 1.99548623 22.17653643 2.26540897 23.89019775 2.53877258 C26.50586675 2.95343391 29.12397218 3.34902839 31.74273682 3.74360657 C33.41739658 4.00612897 35.09188267 4.2697622 36.76617432 4.53462219 C37.54333801 4.65038101 38.32050171 4.76613983 39.12121582 4.88540649 C44.84981512 5.82454118 48.70455796 7.19655895 52.43804932 11.89009094 C58.12036738 22.07907506 58.00560649 36.74160853 55.18804932 47.89009094 C51.79331914 56.735076 45.54935022 60.99295464 37.21539307 64.91352844 C31.80693231 67.15102077 27.0477796 68.45650916 21.18804932 68.89009094 C20.00082275 68.98805969 18.81359619 69.08602844 17.59039307 69.18696594 C14.12784197 69.13836873 12.23982905 68.85401187 9.25054932 67.14009094 C5.95376179 63.5894323 4.61201309 60.84122099 3.70367432 56.10493469 C3.46584229 54.86985168 3.22801025 53.63476868 2.98297119 52.36225891 C2.73512493 50.95551743 2.49119903 49.54808138 2.25054932 48.14009094 C2.11882324 47.37062134 1.98709717 46.60115173 1.85137939 45.80836487 C0.9859197 40.6724908 0.18089254 35.52885082 -0.59417725 30.37861633 C-1.00274112 27.68086414 -1.42670765 24.98579715 -1.85101318 22.29048157 C-2.1149755 20.55429632 -2.37802946 18.81797267 -2.64007568 17.08149719 C-2.76706848 16.28659378 -2.89406128 15.49169037 -3.02490234 14.67269897 C-3.72614225 9.88143607 -3.74916821 5.89261208 -2.74945068 1.14009094 C-1.74945068 0.14009094 -1.74945068 0.14009094 0 0 Z " fill="#306C3F" transform="translate(31.74945068359375,21.859909057617188)"/>
<path d="M0 0 C7.19471007 4.88261042 12.25047954 12.4468577 14.81640625 20.71484375 C15.53466502 30.27832622 15.53466502 30.27832622 13.81640625 33.71484375 C-1.52915001 34.4746448 -16.81954461 34.85094261 -32.18359375 34.71484375 C-34.74707597 43.184589 -35.46104744 49.49405675 -31.44921875 57.57421875 C-27.30329777 64.58645546 -22.87088973 68.4766901 -14.87109375 70.58984375 C-9.17698451 70.7828644 -4.46779893 69.83300651 -0.1953125 65.87109375 C1.55045976 63.86738083 3.20449675 61.82729357 4.81640625 59.71484375 C6.87890625 57.15234375 6.87890625 57.15234375 8.81640625 55.71484375 C12.06640625 55.96484375 12.06640625 55.96484375 14.81640625 56.71484375 C15.41974439 64.19623671 14.29157037 69.56672109 9.81640625 75.71484375 C1.5435528 83.46657257 -8.78076291 85.32936797 -19.77734375 85.06640625 C-27.03866875 84.31695757 -34.42985646 81.48145121 -39.18359375 75.71484375 C-46.69426685 64.39467059 -47.52927932 54.31871519 -47.49609375 40.96484375 C-47.51220703 39.68351562 -47.52832031 38.4021875 -47.54492188 37.08203125 C-47.5515992 23.91434749 -45.89039224 11.1760114 -36.70703125 1.09375 C-25.88725661 -8.65561913 -11.80717738 -6.94912586 0 0 Z M-24.18359375 15.71484375 C-25.30918784 17.7762083 -25.30918784 17.7762083 -25.18359375 19.71484375 C-23.40757532 21.90786632 -23.40757532 21.90786632 -21.12060547 21.94189453 C-20.29318848 21.9314209 -19.46577148 21.92094727 -18.61328125 21.91015625 C-17.71738281 21.90371094 -16.82148438 21.89726563 -15.8984375 21.890625 C-14.96128906 21.87386719 -14.02414063 21.85710937 -13.05859375 21.83984375 C-12.11371094 21.83082031 -11.16882813 21.82179688 -10.1953125 21.8125 C-7.85782083 21.78888897 -5.52083252 21.75595891 -3.18359375 21.71484375 C-3.83960599 16.77793115 -5.39925541 14.90951062 -9.21875 11.89453125 C-15.44405948 8.15687029 -19.81379163 11.13695581 -24.18359375 15.71484375 Z " fill="#F8B12C" transform="translate(233.18359375,97.28515625)"/>
<path d="M0 0 C5.26062076 0.06242825 10.38959323 0.65583139 15.59375 1.390625 C16.47933594 1.50019531 17.36492187 1.60976562 18.27734375 1.72265625 C27.97513836 3.07550572 36.70371069 6.46739321 43.09375 14.140625 C49.21528391 23.99191361 52.25318493 32.12157118 49.96875 43.703125 C47.66256593 52.53663362 44.44924435 58.14958223 36.5390625 62.953125 C26.92295895 67.62292609 15.17760451 67.02899797 4.93359375 64.96875 C2.36049519 63.8105825 1.56430694 62.55793157 0.09375 60.140625 C-0.59814453 56.87939453 -0.59814453 56.87939453 -1.0390625 53.0234375 C-1.12123016 52.32983124 -1.20339783 51.63622498 -1.28805542 50.92160034 C-1.54742293 48.7041059 -1.78920782 46.48506965 -2.03125 44.265625 C-2.20075265 42.81237477 -2.37131621 41.35924786 -2.54296875 39.90625 C-5.63108036 13.31351131 -5.63108036 13.31351131 -4.90625 1.140625 C-3.90625 0.140625 -3.90625 0.140625 0 0 Z " fill="#C43B34" transform="translate(48.90625,123.859375)"/>
<path d="M0 0 C0.495 0.495 0.495 0.495 1 1 C0.94921875 2.92578125 0.94921875 2.92578125 0.6875 5.3125 C0.60886719 6.09238281 0.53023437 6.87226562 0.44921875 7.67578125 C-0.02741409 10.14183812 -0.67054386 11.87196269 -2 14 C-5.07165771 16.0477718 -6.27843538 16.33875219 -9.82421875 16.7109375 C-10.77103516 16.82179688 -11.71785156 16.93265625 -12.69335938 17.046875 C-14.6693156 17.26341815 -16.64588202 17.47447278 -18.62304688 17.6796875 C-26.04560633 18.56296706 -32.66327664 20.1287786 -37.875 25.8125 C-41.50465726 31.25698589 -42.61496857 36.21649442 -41.5859375 42.62792969 C-39.59135392 50.70266888 -32.91251446 56.4018232 -27.125 61.9375 C-9.85454362 78.53489548 -9.85454362 78.53489548 -8.6640625 86.1484375 C-8.56772536 91.63965453 -9.21796375 94.74520922 -13 99 C-20.77633152 106.2903108 -32.71721492 111.73517145 -43.4375 112.125 C-44.283125 112.08375 -45.12875 112.0425 -46 112 C-46.81037005 109.16370482 -47.06657032 107.29956646 -46.421875 104.3984375 C-45 102 -45 102 -42.1015625 101.14453125 C-40.38066406 100.98017578 -40.38066406 100.98017578 -38.625 100.8125 C-33.02535398 100.30354949 -33.02535398 100.30354949 -28 98 C-26.42529731 94.85059462 -26.05144142 92.35405354 -27 89 C-29.65567531 85.33847999 -32.82355524 82.21033975 -36 79 C-47.98239212 66.37272219 -60.55778754 52.24635281 -60.265625 33.9375 C-59.51987321 25.69036256 -55.81841458 19.62768287 -49.76171875 14.09765625 C-36.68475729 4.16508439 -16.33948433 -1.11199268 0 0 Z " fill="#F8B12C" transform="translate(566,51)"/>
<path d="M0 0 C15.86933564 1.4619991 30.08007018 7.84109338 40.5859375 19.94140625 C44.78604454 25.89945283 45.03655753 32.07131041 44.14453125 39.15234375 C41.97803678 44.82428207 38.05854846 48.74261752 33.14453125 52.15234375 C23.14806969 56.19074358 12.4320821 54.87316169 2.53515625 51.22265625 C0.14453125 50.15234375 0.14453125 50.15234375 -2.85546875 48.15234375 C-3.77426891 45.39594327 -3.98630777 43.73892571 -4.00073242 40.89624023 C-4.00711227 40.04202988 -4.01349213 39.18781952 -4.02006531 38.307724 C-4.02117813 37.38890945 -4.02229095 36.47009491 -4.0234375 35.5234375 C-4.0267659 34.57799576 -4.0300943 33.63255402 -4.03352356 32.65846252 C-4.03858546 30.66041551 -4.04093211 28.66236006 -4.04077148 26.66430664 C-4.04296269 23.59832988 -4.06113907 20.53271018 -4.08007812 17.46679688 C-4.08301118 15.52734498 -4.08499656 13.58789138 -4.0859375 11.6484375 C-4.09312302 10.72759872 -4.10030853 9.80675995 -4.10771179 8.85801697 C-4.10463516 8.00695877 -4.10155853 7.15590057 -4.09838867 6.27905273 C-4.09981369 5.52865219 -4.10123871 4.77825165 -4.10270691 4.00511169 C-3.74320019 1.31101895 -2.72930264 0.22409011 0 0 Z " fill="#306C3F" transform="translate(265.85546875,79.84765625)"/>
<path d="M0 0 C0.66 0 1.32 0 2 0 C3.43224185 10.92893767 4.61258961 21.8588236 5.60400391 32.8359375 C5.75186179 34.45093249 5.89994506 36.06590687 6.04823303 37.68086243 C6.44526505 42.01273004 6.83892727 46.34489729 7.23172426 50.67715073 C7.56126829 54.30836503 7.89248115 57.93942637 8.22367132 61.57049084 C9.00475886 70.1344997 9.78306596 78.69875805 10.55957031 87.26318359 C11.35897345 96.07964924 12.16300995 104.89568375 12.96930945 113.71152115 C13.66410829 121.30996991 14.35610353 128.90867042 15.04584634 136.5075798 C15.45671176 141.03382503 15.8686096 145.55997001 16.28319168 150.08587646 C16.67221562 154.33416036 17.05772379 158.5827491 17.44056511 162.83159447 C17.58121437 164.38609235 17.72308191 165.94048058 17.86628532 167.49474525 C19.19676455 181.94990119 19.19676455 181.94990119 19 189 C17.0592941 185.59859631 16.31244886 182.31919775 15.54464722 178.49186707 C15.41226469 177.84001995 15.27988217 177.18817283 15.14348805 176.51657277 C14.70198059 174.33527742 14.26872596 172.15242637 13.83544922 169.96948242 C13.52036291 168.40381961 13.20478879 166.83825491 12.88876343 165.27278137 C12.03221907 161.02169767 11.18301711 156.76917813 10.33548117 152.51629043 C9.62699841 148.96472905 8.91489266 145.41389826 8.20276845 141.86306554 C6.52241273 133.48420399 4.84792813 125.10418404 3.17724609 116.72338867 C1.45453947 108.08206848 -0.27721873 99.44259849 -2.01360333 90.80401725 C-3.50475305 83.38406309 -4.99065635 75.96307194 -6.47228611 68.54121095 C-7.35692917 64.109955 -8.24345409 59.67909775 -9.13486099 55.24919701 C-9.97321498 51.08159415 -10.80497827 46.91272856 -11.63174057 42.7428112 C-11.93578234 41.21496252 -12.24210353 39.68756536 -12.55090332 38.16067123 C-12.97306513 36.07133072 -13.38684044 33.98049269 -13.7986145 31.88908386 C-14.03199587 30.72083667 -14.26537724 29.55258947 -14.50583076 28.34894085 C-15.83386059 19.34900113 -15.83386059 19.34900113 -13.2421875 15.15625 C-12.46101562 14.2796875 -11.67984375 13.403125 -10.875 12.5 C-10.05644531 11.56542969 -9.23789063 10.63085938 -8.39453125 9.66796875 C-7.20923828 8.34732422 -7.20923828 8.34732422 -6 7 C-4.85172141 5.60617756 -3.70544799 4.21069692 -2.5625 2.8125 C-1.716875 1.884375 -0.87125 0.95625 0 0 Z " fill="#F8B12C" transform="translate(15,5)"/>
<path d="M0 0 C0.99 0 1.98 0 3 0 C3.86361564 3.99996444 4.71774816 8.00182959 5.56347656 12.00561523 C5.8519476 13.36488171 6.14291899 14.72362021 6.43652344 16.08178711 C6.86023418 18.04397139 7.27395234 20.00830488 7.6875 21.97265625 C7.93886719 23.15093994 8.19023437 24.32922363 8.44921875 25.54321289 C9.01399669 29.08784534 9.09602712 32.4169882 9 36 C6.75474054 37.17666004 4.50455858 38.3414074 2.25 39.5 C1.61578125 39.83386719 0.9815625 40.16773438 0.328125 40.51171875 C-3.12010993 42.27175533 -5.04840069 43 -9 43 C-8.37840767 35.24736227 -6.73496917 27.80044044 -4.98876953 20.24121094 C-4.49650373 18.10986229 -4.01132813 15.97699295 -3.52734375 13.84375 C-1.16815784 3.50447351 -1.16815784 3.50447351 0 0 Z " fill="#C43B34" transform="translate(466,77)"/>
</svg>
