<?xml version="1.0" encoding="UTF-8"?>
<svg version="1.1" xmlns="http://www.w3.org/2000/svg" width="640" height="640">
<path d="M0 0 C211.2 0 422.4 0 640 0 C640 211.2 640 422.4 640 640 C428.8 640 217.6 640 0 640 C0 428.8 0 217.6 0 0 Z " fill="#222034" transform="translate(0,0)"/>
<path d="M0 0 C26.4 0 52.8 0 80 0 C80 6.6 80 13.2 80 20 C86.6 20 93.2 20 100 20 C100 26.6 100 33.2 100 40 C106.6 40 113.2 40 120 40 C120 46.6 120 53.2 120 60 C126.6 60 133.2 60 140 60 C140 106.2 140 152.4 140 200 C133.4 200 126.8 200 120 200 C120 226.4 120 252.8 120 280 C113.4 280 106.8 280 100 280 C100 253.6 100 227.2 100 200 C86.8 200 73.6 200 60 200 C60 186.8 60 173.6 60 160 C46.8 160 33.6 160 20 160 C20 153.4 20 146.8 20 140 C6.8 140 -6.4 140 -20 140 C-20 133.4 -20 126.8 -20 120 C-26.6 120 -33.2 120 -40 120 C-40 133.2 -40 146.4 -40 160 C-46.6 160 -53.2 160 -60 160 C-60 127 -60 94 -60 60 C-53.4 60 -46.8 60 -40 60 C-40 53.4 -40 46.8 -40 40 C-33.4 40 -26.8 40 -20 40 C-20 33.4 -20 26.8 -20 20 C-13.4 20 -6.8 20 0 20 C0 13.4 0 6.8 0 0 Z " fill="#000000" transform="translate(300,40)"/>
<path d="M0 0 C6.6 0 13.2 0 20 0 C20 6.6 20 13.2 20 20 C33.2 20 46.4 20 60 20 C60 26.6 60 33.2 60 40 C73.2 40 86.4 40 100 40 C100 53.2 100 66.4 100 80 C113.2 80 126.4 80 140 80 C140 106.4 140 132.8 140 160 C133.4 160 126.8 160 120 160 C120 166.6 120 173.2 120 180 C100.2 180 80.4 180 60 180 C60 186.6 60 193.2 60 200 C40.2 200 20.4 200 0 200 C0 206.6 0 213.2 0 220 C-13.2 220 -26.4 220 -40 220 C-40 200.2 -40 180.4 -40 160 C-46.6 160 -53.2 160 -60 160 C-60 140.2 -60 120.4 -60 100 C-46.8 100 -33.6 100 -20 100 C-20 93.4 -20 86.8 -20 80 C-13.4 80 -6.8 80 0 80 C0 73.4 0 66.8 0 60 C6.6 60 13.2 60 20 60 C20 53.4 20 46.8 20 40 C13.4 40 6.8 40 0 40 C0 26.8 0 13.6 0 0 Z " fill="#F1F0FD" transform="translate(260,160)"/>
<path d="M0 0 C6.6 0 13.2 0 20 0 C20 6.6 20 13.2 20 20 C33.2 20 46.4 20 60 20 C60 26.6 60 33.2 60 40 C73.2 40 86.4 40 100 40 C100 53.2 100 66.4 100 80 C113.2 80 126.4 80 140 80 C140 106.4 140 132.8 140 160 C133.4 160 126.8 160 120 160 C120 166.6 120 173.2 120 180 C100.2 180 80.4 180 60 180 C60 173.4 60 166.8 60 160 C66.6 160 73.2 160 80 160 C80 153.4 80 146.8 80 140 C73.4 140 66.8 140 60 140 C60 133.4 60 126.8 60 120 C46.8 120 33.6 120 20 120 C20 113.4 20 106.8 20 100 C26.6 100 33.2 100 40 100 C40 93.4 40 86.8 40 80 C33.4 80 26.8 80 20 80 C20 66.8 20 53.6 20 40 C13.4 40 6.8 40 0 40 C0 26.8 0 13.6 0 0 Z " fill="#E8A985" transform="translate(260,160)"/>
<path d="M0 0 C13.2 0 26.4 0 40 0 C40 26.4 40 52.8 40 80 C33.4 80 26.8 80 20 80 C20 86.6 20 93.2 20 100 C0.2 100 -19.6 100 -40 100 C-40 93.4 -40 86.8 -40 80 C-33.4 80 -26.8 80 -20 80 C-20 73.4 -20 66.8 -20 60 C-13.4 60 -6.8 60 0 60 C0 53.4 0 46.8 0 40 C6.6 40 13.2 40 20 40 C20 33.4 20 26.8 20 20 C13.4 20 6.8 20 0 20 C0 13.4 0 6.8 0 0 Z " fill="#D1D1D1" transform="translate(360,240)"/>
<path d="M0 0 C13.2 0 26.4 0 40 0 C40 6.6 40 13.2 40 20 C46.6 20 53.2 20 60 20 C60 33.2 60 46.4 60 60 C53.4 60 46.8 60 40 60 C40 53.4 40 46.8 40 40 C26.8 40 13.6 40 0 40 C0 46.6 0 53.2 0 60 C-13.2 60 -26.4 60 -40 60 C-40 53.4 -40 46.8 -40 40 C-46.6 40 -53.2 40 -60 40 C-60 33.4 -60 26.8 -60 20 C-40.2 20 -20.4 20 0 20 C0 13.4 0 6.8 0 0 Z " fill="#E8A985" transform="translate(360,120)"/>
<path d="M0 0 C13.2 0 26.4 0 40 0 C40 19.8 40 39.6 40 60 C33.4 60 26.8 60 20 60 C20 53.4 20 46.8 20 40 C6.8 40 -6.4 40 -20 40 C-20 33.4 -20 26.8 -20 20 C-13.4 20 -6.8 20 0 20 C0 13.4 0 6.8 0 0 Z " fill="#D1D1D1" transform="translate(300,240)"/>
<path d="M0 0 C13.2 0 26.4 0 40 0 C40 13.2 40 26.4 40 40 C13.6 40 -12.8 40 -40 40 C-40 33.4 -40 26.8 -40 20 C-26.8 20 -13.6 20 0 20 C0 13.4 0 6.8 0 0 Z " fill="#B28368" transform="translate(360,160)"/>
<path d="M0 0 C6.6 0 13.2 0 20 0 C20 6.6 20 13.2 20 20 C26.6 20 33.2 20 40 20 C40 26.6 40 33.2 40 40 C33.4 40 26.8 40 20 40 C20 46.6 20 53.2 20 60 C13.4 60 6.8 60 0 60 C0 40.2 0 20.4 0 0 Z " fill="#F1F0FD" transform="translate(340,240)"/>
<path d="M0 0 C19.8 0 39.6 0 60 0 C60 6.6 60 13.2 60 20 C40.2 20 20.4 20 0 20 C0 13.4 0 6.8 0 0 Z " fill="#000000" transform="translate(260,360)"/>
<path d="M0 0 C19.8 0 39.6 0 60 0 C60 6.6 60 13.2 60 20 C40.2 20 20.4 20 0 20 C0 13.4 0 6.8 0 0 Z " fill="#000000" transform="translate(320,340)"/>
<path d="M0 0 C19.8 0 39.6 0 60 0 C60 6.6 60 13.2 60 20 C40.2 20 20.4 20 0 20 C0 13.4 0 6.8 0 0 Z " fill="#D1D1D1" transform="translate(260,340)"/>
<path d="M0 0 C13.2 0 26.4 0 40 0 C40 6.6 40 13.2 40 20 C33.4 20 26.8 20 20 20 C20 26.6 20 33.2 20 40 C13.4 40 6.8 40 0 40 C0 26.8 0 13.6 0 0 Z " fill="#D1D1D1" transform="translate(200,260)"/>
<path d="M0 0 C19.8 0 39.6 0 60 0 C60 6.6 60 13.2 60 20 C40.2 20 20.4 20 0 20 C0 13.4 0 6.8 0 0 Z " fill="#000000" transform="translate(180,240)"/>
<path d="M0 0 C13.2 0 26.4 0 40 0 C40 6.6 40 13.2 40 20 C26.8 20 13.6 20 0 20 C0 13.4 0 6.8 0 0 Z " fill="#000000" transform="translate(220,380)"/>
<path d="M0 0 C13.2 0 26.4 0 40 0 C40 6.6 40 13.2 40 20 C26.8 20 13.6 20 0 20 C0 13.4 0 6.8 0 0 Z " fill="#D1D1D1" transform="translate(220,360)"/>
<path d="M0 0 C6.6 0 13.2 0 20 0 C20 13.2 20 26.4 20 40 C13.4 40 6.8 40 0 40 C0 26.8 0 13.6 0 0 Z " fill="#69483A" transform="translate(200,360)"/>
<path d="M0 0 C6.6 0 13.2 0 20 0 C20 13.2 20 26.4 20 40 C13.4 40 6.8 40 0 40 C0 26.8 0 13.6 0 0 Z " fill="#000000" transform="translate(180,360)"/>
<path d="M0 0 C6.6 0 13.2 0 20 0 C20 13.2 20 26.4 20 40 C13.4 40 6.8 40 0 40 C0 26.8 0 13.6 0 0 Z " fill="#000000" transform="translate(200,320)"/>
<path d="M0 0 C6.6 0 13.2 0 20 0 C20 13.2 20 26.4 20 40 C13.4 40 6.8 40 0 40 C0 26.8 0 13.6 0 0 Z " fill="#69483A" transform="translate(180,260)"/>
<path d="M0 0 C6.6 0 13.2 0 20 0 C20 13.2 20 26.4 20 40 C13.4 40 6.8 40 0 40 C0 26.8 0 13.6 0 0 Z " fill="#000000" transform="translate(160,260)"/>
<path d="M0 0 C13.2 0 26.4 0 40 0 C40 6.6 40 13.2 40 20 C26.8 20 13.6 20 0 20 C0 13.4 0 6.8 0 0 Z " fill="#B28368" transform="translate(360,240)"/>
<path d="M0 0 C13.2 0 26.4 0 40 0 C40 6.6 40 13.2 40 20 C26.8 20 13.6 20 0 20 C0 13.4 0 6.8 0 0 Z " fill="#B28368" transform="translate(300,240)"/>
<path d="M0 0 C6.6 0 13.2 0 20 0 C20 13.2 20 26.4 20 40 C13.4 40 6.8 40 0 40 C0 26.8 0 13.6 0 0 Z " fill="#B28368" transform="translate(400,200)"/>
<path d="M0 0 C13.2 0 26.4 0 40 0 C40 6.6 40 13.2 40 20 C26.8 20 13.6 20 0 20 C0 13.4 0 6.8 0 0 Z " fill="#000000" transform="translate(320,180)"/>
<path d="M0 0 C13.2 0 26.4 0 40 0 C40 6.6 40 13.2 40 20 C26.8 20 13.6 20 0 20 C0 13.4 0 6.8 0 0 Z " fill="#000000" transform="translate(360,160)"/>
<path d="M0 0 C13.2 0 26.4 0 40 0 C40 6.6 40 13.2 40 20 C26.8 20 13.6 20 0 20 C0 13.4 0 6.8 0 0 Z " fill="#F1F0FD" transform="translate(320,160)"/>
<path d="M0 0 C6.6 0 13.2 0 20 0 C20 6.6 20 13.2 20 20 C13.4 20 6.8 20 0 20 C0 13.4 0 6.8 0 0 Z " fill="#000000" transform="translate(200,400)"/>
<path d="M0 0 C6.6 0 13.2 0 20 0 C20 6.6 20 13.2 20 20 C13.4 20 6.8 20 0 20 C0 13.4 0 6.8 0 0 Z " fill="#000000" transform="translate(380,320)"/>
<path d="M0 0 C6.6 0 13.2 0 20 0 C20 6.6 20 13.2 20 20 C13.4 20 6.8 20 0 20 C0 13.4 0 6.8 0 0 Z " fill="#000000" transform="translate(340,300)"/>
<path d="M0 0 C6.6 0 13.2 0 20 0 C20 6.6 20 13.2 20 20 C13.4 20 6.8 20 0 20 C0 13.4 0 6.8 0 0 Z " fill="#000000" transform="translate(180,300)"/>
<path d="M0 0 C6.6 0 13.2 0 20 0 C20 6.6 20 13.2 20 20 C13.4 20 6.8 20 0 20 C0 13.4 0 6.8 0 0 Z " fill="#000000" transform="translate(320,280)"/>
<path d="M0 0 C6.6 0 13.2 0 20 0 C20 6.6 20 13.2 20 20 C13.4 20 6.8 20 0 20 C0 13.4 0 6.8 0 0 Z " fill="#000000" transform="translate(240,220)"/>
<path d="M0 0 C6.6 0 13.2 0 20 0 C20 6.6 20 13.2 20 20 C13.4 20 6.8 20 0 20 C0 13.4 0 6.8 0 0 Z " fill="#000000" transform="translate(260,200)"/>
<path d="M0 0 C6.6 0 13.2 0 20 0 C20 6.6 20 13.2 20 20 C13.4 20 6.8 20 0 20 C0 13.4 0 6.8 0 0 Z " fill="#E8A985" transform="translate(360,180)"/>
<path d="M0 0 C6.6 0 13.2 0 20 0 C20 6.6 20 13.2 20 20 C13.4 20 6.8 20 0 20 C0 13.4 0 6.8 0 0 Z " fill="#F1F0FD" transform="translate(400,160)"/>
<path d="M0 0 C6.6 0 13.2 0 20 0 C20 6.6 20 13.2 20 20 C13.4 20 6.8 20 0 20 C0 13.4 0 6.8 0 0 Z " fill="#B28368" transform="translate(400,140)"/>
</svg>
